<svg width="482" height="645" viewBox="0 0 482 645" fill="none" xmlns="http://www.w3.org/2000/svg">
<path d="M13.0191 213.075C11.942 201.356 21.1667 191.244 32.9352 191.244H449.517C461.372 191.244 470.625 201.498 469.412 213.29L426.964 625.999C425.915 636.199 417.323 643.953 407.069 643.953H70.8675C60.531 643.953 51.8974 636.077 50.9514 625.784L13.0191 213.075Z" fill="#9B3922"/>
<ellipse cx="64.0143" cy="211.035" rx="51.0201" ry="43.0445" fill="#9B3922"/>
<ellipse cx="134.352" cy="211.035" rx="51.0201" ry="43.0445" fill="#9B3922"/>
<ellipse cx="203.7" cy="211.035" rx="51.0201" ry="43.0445" fill="#9B3922"/>
<ellipse cx="273.047" cy="211.035" rx="51.0201" ry="43.0445" fill="#9B3922"/>
<ellipse cx="342.395" cy="211.035" rx="51.0201" ry="43.0445" fill="#9B3922"/>
<path d="M469.203 209.55C469.203 233.322 446.856 253.089 418.678 253.089C390.501 253.089 367.658 233.817 367.658 210.044C367.658 186.272 390.501 167 418.678 167C446.856 167 469.203 185.777 469.203 209.55Z" fill="#9B3922"/>
<path d="M50.3828 174.029L82.5442 639.003" stroke="white" stroke-width="10" stroke-linecap="round"/>
<path d="M94.2305 181.842L126.891 638.898" stroke="white" stroke-width="10" stroke-linecap="round"/>
<path d="M134.283 172.984L166.517 638.899" stroke="white" stroke-width="10" stroke-linecap="round"/>
<path d="M181.501 176.73L199.007 639.279" stroke="white" stroke-width="10" stroke-linecap="round"/>
<path d="M216.671 174.707L234.696 639.577" stroke="white" stroke-width="10" stroke-linecap="round"/>
<path d="M262.391 174.043L278.177 639.391" stroke="white" stroke-width="10" stroke-linecap="round"/>
<path d="M319.005 177.773L321.773 639.204" stroke="white" stroke-width="10" stroke-linecap="round"/>
<path d="M367.187 178.553L364.734 639.112" stroke="white" stroke-width="10" stroke-linecap="round"/>
<path d="M424.788 172.594L405.633 638.933" stroke="white" stroke-width="10" stroke-linecap="round"/>
<ellipse cx="19.5205" cy="16.0018" rx="19.5205" ry="16.0018" transform="matrix(0.950322 0.311268 -0.311924 0.950107 208.214 56)" fill="#FFE06B"/>
<path d="M249.29 64.698C249.29 75.0246 238.357 93 228.638 93C218.919 93 217.253 75.0246 217.253 64.698C217.253 54.3714 221.973 46 231.692 46C241.411 46 249.29 54.3714 249.29 64.698Z" fill="#FFE06B"/>
<g filter="url(#filter0_f_457_2223)">
<ellipse cx="224.262" cy="70" rx="5.00583" ry="5" fill="white"/>
</g>
<ellipse cx="19.5205" cy="16.0018" rx="19.5205" ry="16.0018" transform="matrix(0.950322 0.311268 -0.311924 0.950107 340.367 45)" fill="#FFE06B"/>
<path d="M381.445 53.698C381.445 64.0246 370.511 82 360.792 82C351.073 82 349.407 64.0246 349.407 53.698C349.407 43.3714 354.128 35 363.847 35C373.566 35 381.445 43.3714 381.445 53.698Z" fill="#FFE06B"/>
<g filter="url(#filter1_f_457_2223)">
<ellipse cx="356.415" cy="59" rx="5.00583" ry="5" fill="white"/>
</g>
<ellipse cx="19.5205" cy="16.0018" rx="19.5205" ry="16.0018" transform="matrix(-0.950322 0.311268 0.311924 0.950107 188.248 17)" fill="#FFE06B"/>
<path d="M147.171 25.698C147.171 36.0246 158.104 54 167.823 54C177.542 54 179.208 36.0246 179.208 25.698C179.208 15.3714 174.488 7 164.769 7C155.05 7 147.171 15.3714 147.171 25.698Z" fill="#FFE06B"/>
<g filter="url(#filter2_f_457_2223)">
<ellipse cx="5.00583" cy="5" rx="5.00583" ry="5" transform="matrix(-1 0 0 1 177.206 26)" fill="white"/>
</g>
<ellipse cx="19.5205" cy="16.0018" rx="19.5205" ry="16.0018" transform="matrix(0.950322 0.311268 -0.311924 0.950107 288.307 120)" fill="#FFE06B"/>
<path d="M329.384 128.698C329.384 139.025 318.451 157 308.732 157C299.012 157 297.347 139.025 297.347 128.698C297.347 118.371 302.067 110 311.786 110C321.505 110 329.384 118.371 329.384 128.698Z" fill="#FFE06B"/>
<g filter="url(#filter3_f_457_2223)">
<ellipse cx="304.354" cy="134" rx="5.00583" ry="5" fill="white"/>
</g>
<ellipse cx="19.5205" cy="16.0018" rx="19.5205" ry="16.0018" transform="matrix(0.950322 0.311268 -0.311924 0.950107 420.461 109)" fill="#FFE06B"/>
<path d="M461.538 117.698C461.538 128.025 450.605 146 440.886 146C431.167 146 429.501 128.025 429.501 117.698C429.501 107.371 434.221 99 443.94 99C453.659 99 461.538 107.371 461.538 117.698Z" fill="#FFE06B"/>
<g filter="url(#filter4_f_457_2223)">
<ellipse cx="436.509" cy="123" rx="5.00583" ry="5" fill="white"/>
</g>
<ellipse cx="19.5205" cy="16.0018" rx="19.5205" ry="16.0018" transform="matrix(-0.950322 0.311268 0.311924 0.950107 108.155 81)" fill="#FFE06B"/>
<path d="M67.0789 89.698C67.0789 100.025 78.0123 118 87.7314 118C97.4504 118 99.1161 100.025 99.1161 89.698C99.1161 79.3714 94.3959 71 84.6768 71C74.9578 71 67.0789 79.3714 67.0789 89.698Z" fill="#FFE06B"/>
<g filter="url(#filter5_f_457_2223)">
<ellipse cx="5.00583" cy="5" rx="5.00583" ry="5" transform="matrix(-1 0 0 1 97.1133 90)" fill="white"/>
</g>
<ellipse cx="19.5205" cy="16.0018" rx="19.5205" ry="16.0018" transform="matrix(0.950322 0.311268 -0.311924 0.950107 273.289 164)" fill="#FFE06B"/>
<path d="M314.366 172.698C314.366 183.025 303.433 201 293.714 201C283.995 201 282.329 183.025 282.329 172.698C282.329 162.371 287.049 154 296.768 154C306.488 154 314.366 162.371 314.366 172.698Z" fill="#FFE06B"/>
<g filter="url(#filter6_f_457_2223)">
<ellipse cx="289.337" cy="178" rx="5.00583" ry="5" fill="white"/>
</g>
<ellipse cx="19.5205" cy="16.0018" rx="19.5205" ry="16.0018" transform="matrix(0.950322 0.311268 -0.311924 0.950107 405.443 153)" fill="#FFE06B"/>
<path d="M446.521 161.698C446.521 172.025 435.587 190 425.868 190C416.149 190 414.483 172.025 414.483 161.698C414.483 151.371 419.204 143 428.923 143C438.642 143 446.521 151.371 446.521 161.698Z" fill="#FFE06B"/>
<g filter="url(#filter7_f_457_2223)">
<ellipse cx="421.491" cy="167" rx="5.00583" ry="5" fill="white"/>
</g>
<ellipse cx="19.5205" cy="16.0018" rx="19.5205" ry="16.0018" transform="matrix(-0.950322 0.311268 0.311924 0.950107 123.173 125)" fill="#FFE06B"/>
<path d="M82.0955 133.698C82.0955 144.025 93.0289 162 102.748 162C112.467 162 114.133 144.025 114.133 133.698C114.133 123.371 109.413 115 99.6934 115C89.9744 115 82.0955 123.371 82.0955 133.698Z" fill="#FFE06B"/>
<g filter="url(#filter8_f_457_2223)">
<ellipse cx="5.00583" cy="5" rx="5.00583" ry="5" transform="matrix(-1 0 0 1 112.131 134)" fill="white"/>
</g>
<ellipse cx="19.5205" cy="16.0018" rx="19.5205" ry="16.0018" transform="matrix(0.950322 0.311268 -0.311924 0.950107 308.33 161)" fill="#FFE06B"/>
<path d="M349.407 169.698C349.407 180.025 338.474 198 328.755 198C319.036 198 317.37 180.025 317.37 169.698C317.37 159.371 322.09 151 331.809 151C341.529 151 349.407 159.371 349.407 169.698Z" fill="#FFE06B"/>
<g filter="url(#filter9_f_457_2223)">
<ellipse cx="324.378" cy="175" rx="5.00583" ry="5" fill="white"/>
</g>
<ellipse cx="19.5205" cy="16.0018" rx="19.5205" ry="16.0018" transform="matrix(0.950322 0.311268 -0.311924 0.950107 440.484 150)" fill="#FFE06B"/>
<path d="M481.562 158.698C481.562 169.025 470.628 187 460.909 187C451.19 187 449.525 169.025 449.525 158.698C449.525 148.371 454.245 140 463.964 140C473.683 140 481.562 148.371 481.562 158.698Z" fill="#FFE06B"/>
<g filter="url(#filter10_f_457_2223)">
<ellipse cx="456.532" cy="164" rx="5.00583" ry="5" fill="white"/>
</g>
<ellipse cx="19.5205" cy="16.0018" rx="19.5205" ry="16.0018" transform="matrix(-0.950322 0.311268 0.311924 0.950107 88.1318 122)" fill="#FFE06B"/>
<path d="M47.0545 130.698C47.0545 141.025 57.9879 159 67.7069 159C77.426 159 79.0917 141.025 79.0917 130.698C79.0917 120.371 74.3715 112 64.6524 112C54.9333 112 47.0545 120.371 47.0545 130.698Z" fill="#FFE06B"/>
<g filter="url(#filter11_f_457_2223)">
<ellipse cx="5.00583" cy="5" rx="5.00583" ry="5" transform="matrix(-1 0 0 1 77.0898 131)" fill="white"/>
</g>
<ellipse cx="26.7769" cy="21.9502" rx="26.7769" ry="21.9502" transform="matrix(0.950322 0.311268 -0.311924 0.950107 185.895 107.178)" fill="#FFE06B"/>
<path d="M242.24 119.11C242.24 133.275 227.243 157.932 213.911 157.932C200.579 157.932 198.294 133.275 198.294 119.11C198.294 104.944 204.769 93.4609 218.101 93.4609C231.433 93.4609 242.24 104.944 242.24 119.11Z" fill="#FFE06B"/>
<g filter="url(#filter12_f_457_2223)">
<ellipse cx="207.908" cy="126.384" rx="6.86665" ry="6.85865" fill="white"/>
</g>
<ellipse cx="26.7769" cy="21.9502" rx="26.7769" ry="21.9502" transform="matrix(0.950322 0.311268 -0.311924 0.950107 318.048 96.1777)" fill="#FFE06B"/>
<path d="M374.395 108.11C374.395 122.275 359.397 146.932 346.065 146.932C332.733 146.932 330.448 122.275 330.448 108.11C330.448 93.9442 336.923 82.4609 350.255 82.4609C363.587 82.4609 374.395 93.9442 374.395 108.11Z" fill="#FFE06B"/>
<g filter="url(#filter13_f_457_2223)">
<ellipse cx="340.061" cy="115.384" rx="6.86665" ry="6.85865" fill="white"/>
</g>
<ellipse cx="26.7769" cy="21.9502" rx="26.7769" ry="21.9502" transform="matrix(-0.950322 0.311268 0.311924 0.950107 210.567 68.1777)" fill="#FFE06B"/>
<path d="M154.221 80.1095C154.221 94.2748 169.219 118.932 182.551 118.932C195.883 118.932 198.168 94.2748 198.168 80.1095C198.168 65.9442 191.693 54.4609 178.361 54.4609C165.029 54.4609 154.221 65.9442 154.221 80.1095Z" fill="#FFE06B"/>
<g filter="url(#filter14_f_457_2223)">
<ellipse cx="6.86665" cy="6.85865" rx="6.86665" ry="6.85865" transform="matrix(-1 0 0 1 195.421 80.5254)" fill="white"/>
</g>
<ellipse cx="26.7769" cy="21.9502" rx="26.7769" ry="21.9502" transform="matrix(0.950322 0.311268 -0.311924 0.950107 197.908 148.717)" fill="#FFE06B"/>
<path d="M254.255 160.649C254.255 174.814 239.257 199.471 225.926 199.471C212.594 199.471 210.309 174.814 210.309 160.649C210.309 146.483 216.784 135 230.115 135C243.447 135 254.255 146.483 254.255 160.649Z" fill="#FFE06B"/>
<g filter="url(#filter15_f_457_2223)">
<ellipse cx="219.921" cy="167.923" rx="6.86665" ry="6.85865" fill="white"/>
</g>
<ellipse cx="26.7769" cy="21.9502" rx="26.7769" ry="21.9502" transform="matrix(0.950322 0.311268 -0.311924 0.950107 330.062 137.717)" fill="#FFE06B"/>
<path d="M386.408 149.649C386.408 163.814 371.411 188.471 358.079 188.471C344.747 188.471 342.462 163.814 342.462 149.649C342.462 135.483 348.937 124 362.269 124C375.601 124 386.408 135.483 386.408 149.649Z" fill="#FFE06B"/>
<g filter="url(#filter16_f_457_2223)">
<ellipse cx="352.076" cy="156.923" rx="6.86665" ry="6.85865" fill="white"/>
</g>
<ellipse cx="26.7769" cy="21.9502" rx="26.7769" ry="21.9502" transform="matrix(-0.950322 0.311268 0.311924 0.950107 198.554 109.717)" fill="#FFE06B"/>
<path d="M142.207 121.649C142.207 135.814 157.204 160.471 170.536 160.471C183.868 160.471 186.153 135.814 186.153 121.649C186.153 107.483 179.678 96 166.346 96C153.014 96 142.207 107.483 142.207 121.649Z" fill="#FFE06B"/>
<g filter="url(#filter17_f_457_2223)">
<ellipse cx="6.86665" cy="6.85865" rx="6.86665" ry="6.85865" transform="matrix(-1 0 0 1 183.407 122.064)" fill="white"/>
</g>
<ellipse cx="26.7769" cy="21.9502" rx="26.7769" ry="21.9502" transform="matrix(0.950322 0.311268 -0.311924 0.950107 228.944 107.717)" fill="#FFE06B"/>
<path d="M285.291 119.649C285.291 133.814 270.294 158.471 256.962 158.471C243.63 158.471 241.345 133.814 241.345 119.649C241.345 105.483 247.82 94 261.152 94C274.484 94 285.291 105.483 285.291 119.649Z" fill="#FFE06B"/>
<g filter="url(#filter18_f_457_2223)">
<ellipse cx="250.957" cy="126.923" rx="6.86665" ry="6.85865" fill="white"/>
</g>
<ellipse cx="26.7769" cy="21.9502" rx="26.7769" ry="21.9502" transform="matrix(0.950322 0.311268 -0.311924 0.950107 361.099 96.7168)" fill="#FFE06B"/>
<path d="M417.445 108.649C417.445 122.814 402.447 147.471 389.115 147.471C375.783 147.471 373.498 122.814 373.498 108.649C373.498 94.4833 379.973 83 393.305 83C406.637 83 417.445 94.4833 417.445 108.649Z" fill="#FFE06B"/>
<g filter="url(#filter19_f_457_2223)">
<ellipse cx="383.112" cy="115.923" rx="6.86665" ry="6.85865" fill="white"/>
</g>
<ellipse cx="26.7769" cy="21.9502" rx="26.7769" ry="21.9502" transform="matrix(-0.950322 0.311268 0.311924 0.950107 167.518 68.7168)" fill="#FFE06B"/>
<path d="M111.171 80.6486C111.171 94.8139 126.168 119.471 139.5 119.471C152.832 119.471 155.117 94.8139 155.117 80.6486C155.117 66.4833 148.642 55 135.31 55C121.978 55 111.171 66.4833 111.171 80.6486Z" fill="#FFE06B"/>
<g filter="url(#filter20_f_457_2223)">
<ellipse cx="6.86665" cy="6.85865" rx="6.86665" ry="6.85865" transform="matrix(-1 0 0 1 152.371 81.0645)" fill="white"/>
</g>
<ellipse cx="26.7769" cy="21.9502" rx="26.7769" ry="21.9502" transform="matrix(0.950322 0.311268 -0.311924 0.950107 151.854 71.7168)" fill="#FFE06B"/>
<path d="M208.201 83.6486C208.201 97.8139 193.204 122.471 179.872 122.471C166.54 122.471 164.255 97.8139 164.255 83.6486C164.255 69.4833 170.73 58 184.062 58C197.394 58 208.201 69.4833 208.201 83.6486Z" fill="#FFE06B"/>
<g filter="url(#filter21_f_457_2223)">
<ellipse cx="173.868" cy="90.9231" rx="6.86665" ry="6.85865" fill="white"/>
</g>
<ellipse cx="26.7769" cy="21.9502" rx="26.7769" ry="21.9502" transform="matrix(0.950322 0.311268 -0.311924 0.950107 284.009 60.7168)" fill="#FFE06B"/>
<path d="M340.355 72.6486C340.355 86.8139 325.357 111.471 312.025 111.471C298.693 111.471 296.408 86.8139 296.408 72.6486C296.408 58.4833 302.883 47 316.215 47C329.547 47 340.355 58.4833 340.355 72.6486Z" fill="#FFE06B"/>
<g filter="url(#filter22_f_457_2223)">
<ellipse cx="306.022" cy="79.9231" rx="6.86665" ry="6.85865" fill="white"/>
</g>
<ellipse cx="26.7769" cy="21.9502" rx="26.7769" ry="21.9502" transform="matrix(-0.950322 0.311268 0.311924 0.950107 244.607 32.7168)" fill="#FFE06B"/>
<path d="M188.26 44.6486C188.26 58.8139 203.258 83.4713 216.59 83.4713C229.922 83.4713 232.207 58.8139 232.207 44.6486C232.207 30.4833 225.732 19 212.4 19C199.068 19 188.26 30.4833 188.26 44.6486Z" fill="#FFE06B"/>
<g filter="url(#filter23_f_457_2223)">
<ellipse cx="6.86665" cy="6.85865" rx="6.86665" ry="6.85865" transform="matrix(-1 0 0 1 229.461 45.0645)" fill="white"/>
</g>
<ellipse cx="27.4769" cy="22.524" rx="27.4769" ry="22.524" transform="matrix(0.950322 0.311268 -0.311924 0.950107 143.202 148.076)" fill="#FFE06B"/>
<path d="M201.021 160.319C201.021 174.855 185.631 200.157 171.951 200.157C158.27 200.157 155.926 174.855 155.926 160.319C155.926 145.783 162.57 134 176.25 134C189.931 134 201.021 145.783 201.021 160.319Z" fill="#FFE06B"/>
<g filter="url(#filter24_f_457_2223)">
<ellipse cx="165.79" cy="167.782" rx="7.04615" ry="7.03795" fill="white"/>
</g>
<ellipse cx="27.4769" cy="22.524" rx="27.4769" ry="22.524" transform="matrix(0.950322 0.311268 -0.311924 0.950107 275.356 137.076)" fill="#FFE06B"/>
<path d="M333.175 149.319C333.175 163.855 317.786 189.157 304.105 189.157C290.425 189.157 288.08 163.855 288.08 149.319C288.08 134.783 294.724 123 308.405 123C322.085 123 333.175 134.783 333.175 149.319Z" fill="#FFE06B"/>
<g filter="url(#filter25_f_457_2223)">
<ellipse cx="297.945" cy="156.782" rx="7.04615" ry="7.03795" fill="white"/>
</g>
<ellipse cx="27.4769" cy="22.524" rx="27.4769" ry="22.524" transform="matrix(-0.950322 0.311268 0.311924 0.950107 253.26 109.076)" fill="#FFE06B"/>
<path d="M195.441 121.319C195.441 135.855 210.83 161.157 224.511 161.157C238.191 161.157 240.536 135.855 240.536 121.319C240.536 106.783 233.892 95 220.211 95C206.531 95 195.441 106.783 195.441 121.319Z" fill="#FFE06B"/>
<g filter="url(#filter26_f_457_2223)">
<ellipse cx="7.04615" cy="7.03795" rx="7.04615" ry="7.03795" transform="matrix(-1 0 0 1 237.718 121.744)" fill="white"/>
</g>
<ellipse cx="27.4769" cy="22.524" rx="27.4769" ry="22.524" transform="matrix(0.950322 0.311268 -0.311924 0.950107 122.178 112.076)" fill="#FFE06B"/>
<path d="M179.997 124.319C179.997 138.855 164.607 164.157 150.927 164.157C137.246 164.157 134.901 138.855 134.901 124.319C134.901 109.783 141.546 98 155.226 98C168.907 98 179.997 109.783 179.997 124.319Z" fill="#FFE06B"/>
<g filter="url(#filter27_f_457_2223)">
<ellipse cx="144.766" cy="131.782" rx="7.04615" ry="7.03795" fill="white"/>
</g>
<ellipse cx="27.4769" cy="22.524" rx="27.4769" ry="22.524" transform="matrix(0.950322 0.311268 -0.311924 0.950107 254.332 101.076)" fill="#FFE06B"/>
<path d="M312.151 113.319C312.151 127.855 296.761 153.157 283.081 153.157C269.4 153.157 267.056 127.855 267.056 113.319C267.056 98.7835 273.7 87 287.38 87C301.061 87 312.151 98.7835 312.151 113.319Z" fill="#FFE06B"/>
<g filter="url(#filter28_f_457_2223)">
<ellipse cx="276.92" cy="120.782" rx="7.04615" ry="7.03795" fill="white"/>
</g>
<ellipse cx="27.4769" cy="22.524" rx="27.4769" ry="22.524" transform="matrix(-0.950322 0.311268 0.311924 0.950107 274.284 73.0762)" fill="#FFE06B"/>
<path d="M216.465 85.3191C216.465 99.8547 231.855 125.157 245.535 125.157C259.216 125.157 261.56 99.8547 261.56 85.3191C261.56 70.7835 254.916 59 241.236 59C227.555 59 216.465 70.7835 216.465 85.3191Z" fill="#FFE06B"/>
<g filter="url(#filter29_f_457_2223)">
<ellipse cx="7.04615" cy="7.03795" rx="7.04615" ry="7.03795" transform="matrix(-1 0 0 1 258.741 85.7441)" fill="white"/>
</g>
<ellipse cx="23.9774" cy="19.6553" rx="23.9774" ry="19.6553" transform="matrix(0.950322 0.311268 -0.311924 0.950107 15.2656 157.283)" fill="#FEBF35"/>
<path d="M65.7211 167.967C65.7211 180.651 52.2914 202.731 40.3533 202.731C28.4152 202.731 26.3692 180.651 26.3692 167.967C26.3692 155.283 32.1671 145 44.1052 145C56.0433 145 65.7211 155.283 65.7211 167.967Z" fill="#FEBF35"/>
<g filter="url(#filter30_f_457_2223)">
<ellipse cx="34.9778" cy="174.479" rx="6.14874" ry="6.14157" fill="white"/>
</g>
<ellipse cx="23.9774" cy="19.6553" rx="23.9774" ry="19.6553" transform="matrix(0.950322 0.311268 -0.311924 0.950107 147.419 146.283)" fill="#FEBF35"/>
<path d="M197.874 156.967C197.874 169.651 184.445 191.731 172.507 191.731C160.569 191.731 158.523 169.651 158.523 156.967C158.523 144.283 164.32 134 176.259 134C188.197 134 197.874 144.283 197.874 156.967Z" fill="#FEBF35"/>
<g filter="url(#filter31_f_457_2223)">
<ellipse cx="167.13" cy="163.479" rx="6.14874" ry="6.14157" fill="white"/>
</g>
<ellipse cx="23.9774" cy="19.6553" rx="23.9774" ry="19.6553" transform="matrix(-0.950322 0.311268 0.311924 0.950107 381.196 118.283)" fill="#FEBF35"/>
<path d="M330.741 128.967C330.741 141.651 344.17 163.731 356.109 163.731C368.047 163.731 370.093 141.651 370.093 128.967C370.093 116.283 364.295 106 352.357 106C340.419 106 330.741 116.283 330.741 128.967Z" fill="#FEBF35"/>
<g filter="url(#filter32_f_457_2223)">
<ellipse cx="6.14874" cy="6.14157" rx="6.14874" ry="6.14157" transform="matrix(-1 0 0 1 367.634 129.338)" fill="white"/>
</g>
<ellipse cx="27.4769" cy="22.524" rx="27.4769" ry="22.524" transform="matrix(0.950322 0.311268 -0.311924 0.950107 14.0518 111.076)" fill="#FFE06B"/>
<path d="M71.8708 123.319C71.8708 137.855 56.4811 163.157 42.8006 163.157C29.1201 163.157 26.7755 137.855 26.7755 123.319C26.7755 108.783 33.4196 97 47.1001 97C60.7806 97 71.8708 108.783 71.8708 123.319Z" fill="#FFE06B"/>
<g filter="url(#filter33_f_457_2223)">
<ellipse cx="36.6399" cy="130.782" rx="7.04615" ry="7.03795" fill="white"/>
</g>
<ellipse cx="27.4769" cy="22.524" rx="27.4769" ry="22.524" transform="matrix(0.950322 0.311268 -0.311924 0.950107 146.206 100.076)" fill="#FFE06B"/>
<path d="M204.025 112.319C204.025 126.855 188.635 152.157 174.955 152.157C161.274 152.157 158.93 126.855 158.93 112.319C158.93 97.7835 165.574 86 179.254 86C192.935 86 204.025 97.7835 204.025 112.319Z" fill="#FFE06B"/>
<g filter="url(#filter34_f_457_2223)">
<ellipse cx="168.794" cy="119.782" rx="7.04615" ry="7.03795" fill="white"/>
</g>
<ellipse cx="27.4769" cy="22.524" rx="27.4769" ry="22.524" transform="matrix(-0.950322 0.311268 0.311924 0.950107 382.41 72.0762)" fill="#FFE06B"/>
<path d="M324.591 84.3191C324.591 98.8547 339.981 124.157 353.661 124.157C367.342 124.157 369.686 98.8547 369.686 84.3191C369.686 69.7835 363.042 58 349.362 58C335.681 58 324.591 69.7835 324.591 84.3191Z" fill="#FFE06B"/>
<g filter="url(#filter35_f_457_2223)">
<ellipse cx="7.04615" cy="7.03795" rx="7.04615" ry="7.03795" transform="matrix(-1 0 0 1 366.867 84.7441)" fill="white"/>
</g>
<ellipse cx="27.4769" cy="22.524" rx="27.4769" ry="22.524" transform="matrix(0.950322 0.311268 -0.311924 0.950107 46.0889 153.076)" fill="#FFE06B"/>
<path d="M103.908 165.319C103.908 179.855 88.5182 205.157 74.8377 205.157C61.1572 205.157 58.8126 179.855 58.8126 165.319C58.8126 150.783 65.4567 139 79.1372 139C92.8177 139 103.908 150.783 103.908 165.319Z" fill="#FFE06B"/>
<g filter="url(#filter36_f_457_2223)">
<ellipse cx="68.677" cy="172.782" rx="7.04615" ry="7.03795" fill="white"/>
</g>
<ellipse cx="27.4769" cy="22.524" rx="27.4769" ry="22.524" transform="matrix(0.950322 0.311268 -0.311924 0.950107 178.243 142.076)" fill="#FFE06B"/>
<path d="M236.062 154.319C236.062 168.855 220.672 194.157 206.992 194.157C193.312 194.157 190.967 168.855 190.967 154.319C190.967 139.783 197.611 128 211.291 128C224.972 128 236.062 139.783 236.062 154.319Z" fill="#FFE06B"/>
<g filter="url(#filter37_f_457_2223)">
<ellipse cx="200.831" cy="161.782" rx="7.04615" ry="7.03795" fill="white"/>
</g>
<ellipse cx="27.4769" cy="22.524" rx="27.4769" ry="22.524" transform="matrix(-0.950322 0.311268 0.311924 0.950107 350.373 114.076)" fill="#FFE06B"/>
<path d="M292.554 126.319C292.554 140.855 307.944 166.157 321.624 166.157C335.305 166.157 337.649 140.855 337.649 126.319C337.649 111.783 331.005 100 317.325 100C303.644 100 292.554 111.783 292.554 126.319Z" fill="#FFE06B"/>
<g filter="url(#filter38_f_457_2223)">
<ellipse cx="7.04615" cy="7.03795" rx="7.04615" ry="7.03795" transform="matrix(-1 0 0 1 334.831 126.744)" fill="white"/>
</g>
<ellipse cx="27.4769" cy="22.524" rx="27.4769" ry="22.524" transform="matrix(0.950322 0.311268 -0.311924 0.950107 82.1309 124.076)" fill="#FFE06B"/>
<path d="M139.95 136.319C139.95 150.855 124.56 176.157 110.88 176.157C97.1992 176.157 94.8546 150.855 94.8546 136.319C94.8546 121.783 101.499 110 115.179 110C128.86 110 139.95 121.783 139.95 136.319Z" fill="#FFE06B"/>
<g filter="url(#filter39_f_457_2223)">
<ellipse cx="104.719" cy="143.782" rx="7.04615" ry="7.03795" fill="white"/>
</g>
<ellipse cx="27.4769" cy="22.524" rx="27.4769" ry="22.524" transform="matrix(0.950322 0.311268 -0.311924 0.950107 214.285 113.076)" fill="#FFE06B"/>
<path d="M272.104 125.319C272.104 139.855 256.714 165.157 243.034 165.157C229.353 165.157 227.009 139.855 227.009 125.319C227.009 110.783 233.653 99 247.333 99C261.014 99 272.104 110.783 272.104 125.319Z" fill="#FFE06B"/>
<g filter="url(#filter40_f_457_2223)">
<ellipse cx="236.873" cy="132.782" rx="7.04615" ry="7.03795" fill="white"/>
</g>
<ellipse cx="27.4769" cy="22.524" rx="27.4769" ry="22.524" transform="matrix(-0.950322 0.311268 0.311924 0.950107 314.331 85.0762)" fill="#FFE06B"/>
<path d="M256.512 97.3191C256.512 111.855 271.902 137.157 285.582 137.157C299.263 137.157 301.607 111.855 301.607 97.3191C301.607 82.7835 294.963 71 281.283 71C267.602 71 256.512 82.7835 256.512 97.3191Z" fill="#FFE06B"/>
<g filter="url(#filter41_f_457_2223)">
<ellipse cx="7.04615" cy="7.03795" rx="7.04615" ry="7.03795" transform="matrix(-1 0 0 1 298.789 97.7441)" fill="white"/>
</g>
<ellipse cx="27.4769" cy="22.524" rx="27.4769" ry="22.524" transform="matrix(0.950322 0.311268 -0.311924 0.950107 94.1455 75.0762)" fill="#FFE06B"/>
<path d="M151.965 87.3191C151.965 101.855 136.575 127.157 122.894 127.157C109.214 127.157 106.869 101.855 106.869 87.3191C106.869 72.7835 113.513 61 127.194 61C140.874 61 151.965 72.7835 151.965 87.3191Z" fill="#FFE06B"/>
<g filter="url(#filter42_f_457_2223)">
<ellipse cx="116.734" cy="94.7821" rx="7.04615" ry="7.03795" fill="white"/>
</g>
<ellipse cx="27.4769" cy="22.524" rx="27.4769" ry="22.524" transform="matrix(0.950322 0.311268 -0.311924 0.950107 226.299 64.0762)" fill="#FFE06B"/>
<path d="M284.118 76.3191C284.118 90.8547 268.728 116.157 255.048 116.157C241.367 116.157 239.023 90.8547 239.023 76.3191C239.023 61.7835 245.667 50 259.347 50C273.028 50 284.118 61.7835 284.118 76.3191Z" fill="#FFE06B"/>
<g filter="url(#filter43_f_457_2223)">
<ellipse cx="248.887" cy="83.7821" rx="7.04615" ry="7.03795" fill="white"/>
</g>
<ellipse cx="27.4769" cy="22.524" rx="27.4769" ry="22.524" transform="matrix(-0.950322 0.311268 0.311924 0.950107 302.316 36.0762)" fill="#FFE06B"/>
<path d="M244.497 48.3191C244.497 62.8547 259.887 88.1567 273.568 88.1567C287.248 88.1567 289.593 62.8547 289.593 48.3191C289.593 33.7835 282.949 22 269.268 22C255.588 22 244.497 33.7835 244.497 48.3191Z" fill="#FFE06B"/>
<g filter="url(#filter44_f_457_2223)">
<ellipse cx="7.04615" cy="7.03795" rx="7.04615" ry="7.03795" transform="matrix(-1 0 0 1 286.774 48.7441)" fill="white"/>
</g>
<ellipse cx="23.9774" cy="19.6553" rx="23.9774" ry="19.6553" transform="matrix(0.950322 0.311268 -0.311924 0.950107 101.365 159.283)" fill="#FEBF35"/>
<path d="M151.821 169.967C151.821 182.651 138.391 204.731 126.453 204.731C114.515 204.731 112.469 182.651 112.469 169.967C112.469 157.283 118.267 147 130.205 147C142.143 147 151.821 157.283 151.821 169.967Z" fill="#FEBF35"/>
<g filter="url(#filter45_f_457_2223)">
<ellipse cx="121.076" cy="176.479" rx="6.14874" ry="6.14157" fill="white"/>
</g>
<ellipse cx="23.9774" cy="19.6553" rx="23.9774" ry="19.6553" transform="matrix(0.950322 0.311268 -0.311924 0.950107 233.52 148.283)" fill="#FEBF35"/>
<path d="M283.975 158.967C283.975 171.651 270.545 193.731 258.607 193.731C246.669 193.731 244.623 171.651 244.623 158.967C244.623 146.283 250.421 136 262.359 136C274.297 136 283.975 146.283 283.975 158.967Z" fill="#FEBF35"/>
<g filter="url(#filter46_f_457_2223)">
<ellipse cx="253.232" cy="165.479" rx="6.14874" ry="6.14157" fill="white"/>
</g>
<ellipse cx="23.9774" cy="19.6553" rx="23.9774" ry="19.6553" transform="matrix(-0.950322 0.311268 0.311924 0.950107 295.097 120.283)" fill="#FEBF35"/>
<path d="M244.641 130.967C244.641 143.651 258.071 165.731 270.009 165.731C281.947 165.731 283.993 143.651 283.993 130.967C283.993 118.283 278.195 108 266.257 108C254.319 108 244.641 118.283 244.641 130.967Z" fill="#FEBF35"/>
<g filter="url(#filter47_f_457_2223)">
<ellipse cx="6.14874" cy="6.14157" rx="6.14874" ry="6.14157" transform="matrix(-1 0 0 1 281.534 131.338)" fill="white"/>
</g>
<ellipse cx="23.9774" cy="19.6553" rx="23.9774" ry="19.6553" transform="matrix(0.950322 0.311268 -0.311924 0.950107 58.3154 101.283)" fill="#FEBF35"/>
<path d="M108.771 111.967C108.771 124.651 95.3412 146.731 83.4031 146.731C71.465 146.731 69.4191 124.651 69.4191 111.967C69.4191 99.2827 75.2169 89 87.155 89C99.0931 89 108.771 99.2827 108.771 111.967Z" fill="#FEBF35"/>
<g filter="url(#filter48_f_457_2223)">
<ellipse cx="78.0267" cy="118.479" rx="6.14874" ry="6.14157" fill="white"/>
</g>
<ellipse cx="23.9774" cy="19.6553" rx="23.9774" ry="19.6553" transform="matrix(0.950322 0.311268 -0.311924 0.950107 190.47 90.2832)" fill="#FEBF35"/>
<path d="M240.925 100.967C240.925 113.651 227.496 135.731 215.557 135.731C203.619 135.731 201.573 113.651 201.573 100.967C201.573 88.2827 207.371 78 219.309 78C231.247 78 240.925 88.2827 240.925 100.967Z" fill="#FEBF35"/>
<g filter="url(#filter49_f_457_2223)">
<ellipse cx="210.181" cy="107.479" rx="6.14874" ry="6.14157" fill="white"/>
</g>
<ellipse cx="23.9774" cy="19.6553" rx="23.9774" ry="19.6553" transform="matrix(-0.950322 0.311268 0.311924 0.950107 338.146 62.2832)" fill="#FEBF35"/>
<path d="M287.691 72.967C287.691 85.6513 301.121 107.731 313.059 107.731C324.997 107.731 327.043 85.6513 327.043 72.967C327.043 60.2827 321.245 50 309.307 50C297.369 50 287.691 60.2827 287.691 72.967Z" fill="#FEBF35"/>
<g filter="url(#filter50_f_457_2223)">
<ellipse cx="6.14874" cy="6.14157" rx="6.14874" ry="6.14157" transform="matrix(-1 0 0 1 324.584 73.3379)" fill="white"/>
</g>
<ellipse cx="23.9774" cy="19.6553" rx="23.9774" ry="19.6553" transform="matrix(0.950322 0.311268 -0.311924 0.950107 169.444 92.2832)" fill="#FEBF35"/>
<path d="M219.9 102.967C219.9 115.651 206.47 137.731 194.532 137.731C182.594 137.731 180.548 115.651 180.548 102.967C180.548 90.2827 186.346 80 198.284 80C210.222 80 219.9 90.2827 219.9 102.967Z" fill="#FEBF35"/>
<g filter="url(#filter51_f_457_2223)">
<ellipse cx="189.156" cy="109.479" rx="6.14874" ry="6.14157" fill="white"/>
</g>
<ellipse cx="23.9774" cy="19.6553" rx="23.9774" ry="19.6553" transform="matrix(0.950322 0.311268 -0.311924 0.950107 301.599 81.2832)" fill="#FEBF35"/>
<path d="M352.054 91.967C352.054 104.651 338.624 126.731 326.686 126.731C314.748 126.731 312.702 104.651 312.702 91.967C312.702 79.2827 318.5 69 330.438 69C342.376 69 352.054 79.2827 352.054 91.967Z" fill="#FEBF35"/>
<g filter="url(#filter52_f_457_2223)">
<ellipse cx="321.31" cy="98.4795" rx="6.14874" ry="6.14157" fill="white"/>
</g>
<ellipse cx="23.9774" cy="19.6553" rx="23.9774" ry="19.6553" transform="matrix(-0.950322 0.311268 0.311924 0.950107 227.018 53.2832)" fill="#FEBF35"/>
<path d="M176.562 63.967C176.562 76.6513 189.992 98.7308 201.93 98.7308C213.868 98.7308 215.914 76.6513 215.914 63.967C215.914 51.2827 210.116 41 198.178 41C186.24 41 176.562 51.2827 176.562 63.967Z" fill="#FEBF35"/>
<g filter="url(#filter53_f_457_2223)">
<ellipse cx="6.14874" cy="6.14157" rx="6.14874" ry="6.14157" transform="matrix(-1 0 0 1 213.455 64.3379)" fill="white"/>
</g>
<ellipse cx="23.9774" cy="19.6553" rx="23.9774" ry="19.6553" transform="matrix(0.950322 0.311268 -0.311924 0.950107 176.453 154.283)" fill="#FEBF35"/>
<path d="M226.909 164.967C226.909 177.651 213.479 199.731 201.541 199.731C189.603 199.731 187.557 177.651 187.557 164.967C187.557 152.283 193.355 142 205.293 142C217.231 142 226.909 152.283 226.909 164.967Z" fill="#FEBF35"/>
<g filter="url(#filter54_f_457_2223)">
<ellipse cx="196.164" cy="171.479" rx="6.14874" ry="6.14157" fill="white"/>
</g>
<ellipse cx="23.9774" cy="19.6553" rx="23.9774" ry="19.6553" transform="matrix(0.950322 0.311268 -0.311924 0.950107 308.607 143.283)" fill="#FEBF35"/>
<path d="M359.063 153.967C359.063 166.651 345.633 188.731 333.695 188.731C321.757 188.731 319.711 166.651 319.711 153.967C319.711 141.283 325.509 131 337.447 131C349.385 131 359.063 141.283 359.063 153.967Z" fill="#FEBF35"/>
<g filter="url(#filter55_f_457_2223)">
<ellipse cx="328.319" cy="160.479" rx="6.14874" ry="6.14157" fill="white"/>
</g>
<ellipse cx="23.9774" cy="19.6553" rx="23.9774" ry="19.6553" transform="matrix(-0.950322 0.311268 0.311924 0.950107 220.009 115.283)" fill="#FEBF35"/>
<path d="M169.553 125.967C169.553 138.651 182.983 160.731 194.921 160.731C206.859 160.731 208.905 138.651 208.905 125.967C208.905 113.283 203.107 103 191.169 103C179.231 103 169.553 113.283 169.553 125.967Z" fill="#FEBF35"/>
<g filter="url(#filter56_f_457_2223)">
<ellipse cx="6.14874" cy="6.14157" rx="6.14874" ry="6.14157" transform="matrix(-1 0 0 1 206.446 126.338)" fill="white"/>
</g>
<ellipse cx="28.5979" cy="23.4429" rx="28.5979" ry="23.4429" transform="matrix(0.950322 0.311268 -0.311924 0.950107 120.749 53.6504)" fill="#FEBF35"/>
<path d="M180.927 66.3929C180.927 81.5216 164.91 107.856 150.671 107.856C136.433 107.856 133.992 81.5216 133.992 66.3929C133.992 51.2642 140.907 39 155.146 39C169.385 39 180.927 51.2642 180.927 66.3929Z" fill="#FEBF35"/>
<g filter="url(#filter57_f_457_2223)">
<ellipse cx="150.184" cy="68.4795" rx="6.14874" ry="6.14157" fill="white"/>
</g>
<ellipse cx="28.5979" cy="23.4429" rx="28.5979" ry="23.4429" transform="matrix(0.950322 0.311268 -0.311924 0.950107 252.902 42.6504)" fill="#FEBF35"/>
<path d="M313.081 55.3929C313.081 70.5216 297.063 96.8558 282.825 96.8558C268.586 96.8558 266.146 70.5216 266.146 55.3929C266.146 40.2642 273.061 28 287.299 28C301.538 28 313.081 40.2642 313.081 55.3929Z" fill="#FEBF35"/>
<g filter="url(#filter58_f_457_2223)">
<ellipse cx="282.337" cy="57.4795" rx="6.14874" ry="6.14157" fill="white"/>
</g>
<ellipse cx="28.5979" cy="23.4429" rx="28.5979" ry="23.4429" transform="matrix(-0.950322 0.311268 0.311924 0.950107 275.713 14.6504)" fill="#FEBF35"/>
<path d="M215.534 27.3929C215.534 42.5216 231.552 68.8558 245.791 68.8558C260.029 68.8558 262.47 42.5216 262.47 27.3929C262.47 12.2642 255.554 0 241.316 0C227.077 0 215.534 12.2642 215.534 27.3929Z" fill="#FEBF35"/>
<g filter="url(#filter59_f_457_2223)">
<ellipse cx="6.14874" cy="6.14157" rx="6.14874" ry="6.14157" transform="matrix(-1 0 0 1 252.427 23.3379)" fill="white"/>
</g>
<ellipse cx="23.9774" cy="19.6553" rx="23.9774" ry="19.6553" transform="matrix(0.950322 0.311268 -0.311924 0.950107 243.531 150.283)" fill="#FEBF35"/>
<path d="M293.987 160.967C293.987 173.651 280.557 195.731 268.619 195.731C256.681 195.731 254.635 173.651 254.635 160.967C254.635 148.283 260.433 138 272.371 138C284.309 138 293.987 148.283 293.987 160.967Z" fill="#FEBF35"/>
<g filter="url(#filter60_f_457_2223)">
<ellipse cx="263.242" cy="167.479" rx="6.14874" ry="6.14157" fill="white"/>
</g>
<ellipse cx="23.9774" cy="19.6553" rx="23.9774" ry="19.6553" transform="matrix(0.950322 0.311268 -0.311924 0.950107 375.686 139.283)" fill="#FEBF35"/>
<path d="M426.141 149.967C426.141 162.651 412.711 184.731 400.773 184.731C388.835 184.731 386.789 162.651 386.789 149.967C386.789 137.283 392.587 127 404.525 127C416.463 127 426.141 137.283 426.141 149.967Z" fill="#FEBF35"/>
<g filter="url(#filter61_f_457_2223)">
<ellipse cx="395.397" cy="156.479" rx="6.14874" ry="6.14157" fill="white"/>
</g>
<ellipse cx="23.9774" cy="19.6553" rx="23.9774" ry="19.6553" transform="matrix(-0.950322 0.311268 0.311924 0.950107 152.931 111.283)" fill="#FEBF35"/>
<path d="M102.475 121.967C102.475 134.651 115.905 156.731 127.843 156.731C139.781 156.731 141.827 134.651 141.827 121.967C141.827 109.283 136.029 99 124.091 99C112.153 99 102.475 109.283 102.475 121.967Z" fill="#FEBF35"/>
<g filter="url(#filter62_f_457_2223)">
<ellipse cx="6.14874" cy="6.14157" rx="6.14874" ry="6.14157" transform="matrix(-1 0 0 1 139.368 122.338)" fill="white"/>
</g>
<ellipse cx="23.9774" cy="19.6553" rx="23.9774" ry="19.6553" transform="matrix(0.950322 0.311268 -0.311924 0.950107 232.519 68.2832)" fill="#FEBF35"/>
<path d="M282.974 78.967C282.974 91.6513 269.544 113.731 257.606 113.731C245.668 113.731 243.622 91.6513 243.622 78.967C243.622 66.2827 249.42 56 261.358 56C273.296 56 282.974 66.2827 282.974 78.967Z" fill="#FEBF35"/>
<g filter="url(#filter63_f_457_2223)">
<ellipse cx="252.23" cy="85.4795" rx="6.14874" ry="6.14157" fill="white"/>
</g>
<ellipse cx="23.9774" cy="19.6553" rx="23.9774" ry="19.6553" transform="matrix(0.950322 0.311268 -0.311924 0.950107 364.672 57.2832)" fill="#FEBF35"/>
<path d="M415.127 67.967C415.127 80.6513 401.698 102.731 389.76 102.731C377.821 102.731 375.775 80.6513 375.775 67.967C375.775 55.2827 381.573 45 393.511 45C405.45 45 415.127 55.2827 415.127 67.967Z" fill="#FEBF35"/>
<g filter="url(#filter64_f_457_2223)">
<ellipse cx="384.384" cy="74.4795" rx="6.14874" ry="6.14157" fill="white"/>
</g>
<ellipse cx="23.9774" cy="19.6553" rx="23.9774" ry="19.6553" transform="matrix(-0.950322 0.311268 0.311924 0.950107 163.943 29.2832)" fill="#FEBF35"/>
<path d="M113.488 39.967C113.488 52.6513 126.918 74.7308 138.856 74.7308C150.794 74.7308 152.84 52.6513 152.84 39.967C152.84 27.2827 147.042 17 135.104 17C123.166 17 113.488 27.2827 113.488 39.967Z" fill="#FEBF35"/>
<g filter="url(#filter65_f_457_2223)">
<ellipse cx="6.14874" cy="6.14157" rx="6.14874" ry="6.14157" transform="matrix(-1 0 0 1 150.381 40.3379)" fill="white"/>
</g>
<ellipse cx="23.9774" cy="19.6553" rx="23.9774" ry="19.6553" transform="matrix(0.950322 0.311268 -0.311924 0.950107 293.59 139.283)" fill="#FEBF35"/>
<path d="M344.045 149.967C344.045 162.651 330.616 184.731 318.678 184.731C306.739 184.731 304.693 162.651 304.693 149.967C304.693 137.283 310.491 127 322.429 127C334.368 127 344.045 137.283 344.045 149.967Z" fill="#FEBF35"/>
<g filter="url(#filter66_f_457_2223)">
<ellipse cx="313.301" cy="156.479" rx="6.14874" ry="6.14157" fill="white"/>
</g>
<ellipse cx="23.9774" cy="19.6553" rx="23.9774" ry="19.6553" transform="matrix(0.950322 0.311268 -0.311924 0.950107 425.743 128.283)" fill="#FEBF35"/>
<path d="M476.199 138.967C476.199 151.651 462.769 173.731 450.831 173.731C438.893 173.731 436.847 151.651 436.847 138.967C436.847 126.283 442.645 116 454.583 116C466.521 116 476.199 126.283 476.199 138.967Z" fill="#FEBF35"/>
<g filter="url(#filter67_f_457_2223)">
<ellipse cx="445.454" cy="145.479" rx="6.14874" ry="6.14157" fill="white"/>
</g>
<ellipse cx="23.9774" cy="19.6553" rx="23.9774" ry="19.6553" transform="matrix(-0.950322 0.311268 0.311924 0.950107 102.872 100.283)" fill="#FEBF35"/>
<path d="M52.4166 110.967C52.4166 123.651 65.8463 145.731 77.7844 145.731C89.7225 145.731 91.7684 123.651 91.7684 110.967C91.7684 98.2827 85.9706 88 74.0325 88C62.0944 88 52.4166 98.2827 52.4166 110.967Z" fill="#FEBF35"/>
<g filter="url(#filter68_f_457_2223)">
<ellipse cx="6.14874" cy="6.14157" rx="6.14874" ry="6.14157" transform="matrix(-1 0 0 1 89.3096 111.338)" fill="white"/>
</g>
<ellipse cx="23.9774" cy="19.6553" rx="23.9774" ry="19.6553" transform="matrix(0.950322 0.311268 -0.311924 0.950107 264.556 98.2832)" fill="#FEBF35"/>
<path d="M315.011 108.967C315.011 121.651 301.581 143.731 289.643 143.731C277.705 143.731 275.659 121.651 275.659 108.967C275.659 96.2827 281.457 86 293.395 86C305.333 86 315.011 96.2827 315.011 108.967Z" fill="#FEBF35"/>
<g filter="url(#filter69_f_457_2223)">
<ellipse cx="284.267" cy="115.479" rx="6.14874" ry="6.14157" fill="white"/>
</g>
<ellipse cx="23.9774" cy="19.6553" rx="23.9774" ry="19.6553" transform="matrix(0.950322 0.311268 -0.311924 0.950107 396.71 87.2832)" fill="#FEBF35"/>
<path d="M447.165 97.967C447.165 110.651 433.736 132.731 421.798 132.731C409.86 132.731 407.814 110.651 407.814 97.967C407.814 85.2827 413.611 75 425.55 75C437.488 75 447.165 85.2827 447.165 97.967Z" fill="#FEBF35"/>
<g filter="url(#filter70_f_457_2223)">
<ellipse cx="416.421" cy="104.479" rx="6.14874" ry="6.14157" fill="white"/>
</g>
<ellipse cx="23.9774" cy="19.6553" rx="23.9774" ry="19.6553" transform="matrix(-0.950322 0.311268 0.311924 0.950107 131.906 59.2832)" fill="#FEBF35"/>
<path d="M81.4508 69.967C81.4508 82.6513 94.8805 104.731 106.819 104.731C118.757 104.731 120.803 82.6513 120.803 69.967C120.803 57.2827 115.005 47 103.067 47C91.1286 47 81.4508 57.2827 81.4508 69.967Z" fill="#FEBF35"/>
<g filter="url(#filter71_f_457_2223)">
<ellipse cx="6.14874" cy="6.14157" rx="6.14874" ry="6.14157" transform="matrix(-1 0 0 1 118.343 70.3379)" fill="white"/>
</g>
<defs>
<filter id="filter0_f_457_2223" x="215.256" y="61" width="18.0117" height="18" filterUnits="userSpaceOnUse" color-interpolation-filters="sRGB">
<feFlood flood-opacity="0" result="BackgroundImageFix"/>
<feBlend mode="normal" in="SourceGraphic" in2="BackgroundImageFix" result="shape"/>
<feGaussianBlur stdDeviation="2" result="effect1_foregroundBlur_457_2223"/>
</filter>
<filter id="filter1_f_457_2223" x="347.409" y="50" width="18.0117" height="18" filterUnits="userSpaceOnUse" color-interpolation-filters="sRGB">
<feFlood flood-opacity="0" result="BackgroundImageFix"/>
<feBlend mode="normal" in="SourceGraphic" in2="BackgroundImageFix" result="shape"/>
<feGaussianBlur stdDeviation="2" result="effect1_foregroundBlur_457_2223"/>
</filter>
<filter id="filter2_f_457_2223" x="163.194" y="22" width="18.0117" height="18" filterUnits="userSpaceOnUse" color-interpolation-filters="sRGB">
<feFlood flood-opacity="0" result="BackgroundImageFix"/>
<feBlend mode="normal" in="SourceGraphic" in2="BackgroundImageFix" result="shape"/>
<feGaussianBlur stdDeviation="2" result="effect1_foregroundBlur_457_2223"/>
</filter>
<filter id="filter3_f_457_2223" x="295.349" y="125" width="18.0117" height="18" filterUnits="userSpaceOnUse" color-interpolation-filters="sRGB">
<feFlood flood-opacity="0" result="BackgroundImageFix"/>
<feBlend mode="normal" in="SourceGraphic" in2="BackgroundImageFix" result="shape"/>
<feGaussianBlur stdDeviation="2" result="effect1_foregroundBlur_457_2223"/>
</filter>
<filter id="filter4_f_457_2223" x="427.503" y="114" width="18.0117" height="18" filterUnits="userSpaceOnUse" color-interpolation-filters="sRGB">
<feFlood flood-opacity="0" result="BackgroundImageFix"/>
<feBlend mode="normal" in="SourceGraphic" in2="BackgroundImageFix" result="shape"/>
<feGaussianBlur stdDeviation="2" result="effect1_foregroundBlur_457_2223"/>
</filter>
<filter id="filter5_f_457_2223" x="83.1016" y="86" width="18.0117" height="18" filterUnits="userSpaceOnUse" color-interpolation-filters="sRGB">
<feFlood flood-opacity="0" result="BackgroundImageFix"/>
<feBlend mode="normal" in="SourceGraphic" in2="BackgroundImageFix" result="shape"/>
<feGaussianBlur stdDeviation="2" result="effect1_foregroundBlur_457_2223"/>
</filter>
<filter id="filter6_f_457_2223" x="280.331" y="169" width="18.0117" height="18" filterUnits="userSpaceOnUse" color-interpolation-filters="sRGB">
<feFlood flood-opacity="0" result="BackgroundImageFix"/>
<feBlend mode="normal" in="SourceGraphic" in2="BackgroundImageFix" result="shape"/>
<feGaussianBlur stdDeviation="2" result="effect1_foregroundBlur_457_2223"/>
</filter>
<filter id="filter7_f_457_2223" x="412.485" y="158" width="18.0117" height="18" filterUnits="userSpaceOnUse" color-interpolation-filters="sRGB">
<feFlood flood-opacity="0" result="BackgroundImageFix"/>
<feBlend mode="normal" in="SourceGraphic" in2="BackgroundImageFix" result="shape"/>
<feGaussianBlur stdDeviation="2" result="effect1_foregroundBlur_457_2223"/>
</filter>
<filter id="filter8_f_457_2223" x="98.1191" y="130" width="18.0117" height="18" filterUnits="userSpaceOnUse" color-interpolation-filters="sRGB">
<feFlood flood-opacity="0" result="BackgroundImageFix"/>
<feBlend mode="normal" in="SourceGraphic" in2="BackgroundImageFix" result="shape"/>
<feGaussianBlur stdDeviation="2" result="effect1_foregroundBlur_457_2223"/>
</filter>
<filter id="filter9_f_457_2223" x="315.372" y="166" width="18.0117" height="18" filterUnits="userSpaceOnUse" color-interpolation-filters="sRGB">
<feFlood flood-opacity="0" result="BackgroundImageFix"/>
<feBlend mode="normal" in="SourceGraphic" in2="BackgroundImageFix" result="shape"/>
<feGaussianBlur stdDeviation="2" result="effect1_foregroundBlur_457_2223"/>
</filter>
<filter id="filter10_f_457_2223" x="447.526" y="155" width="18.0117" height="18" filterUnits="userSpaceOnUse" color-interpolation-filters="sRGB">
<feFlood flood-opacity="0" result="BackgroundImageFix"/>
<feBlend mode="normal" in="SourceGraphic" in2="BackgroundImageFix" result="shape"/>
<feGaussianBlur stdDeviation="2" result="effect1_foregroundBlur_457_2223"/>
</filter>
<filter id="filter11_f_457_2223" x="63.0781" y="127" width="18.0117" height="18" filterUnits="userSpaceOnUse" color-interpolation-filters="sRGB">
<feFlood flood-opacity="0" result="BackgroundImageFix"/>
<feBlend mode="normal" in="SourceGraphic" in2="BackgroundImageFix" result="shape"/>
<feGaussianBlur stdDeviation="2" result="effect1_foregroundBlur_457_2223"/>
</filter>
<filter id="filter12_f_457_2223" x="197.041" y="115.525" width="21.7334" height="21.7168" filterUnits="userSpaceOnUse" color-interpolation-filters="sRGB">
<feFlood flood-opacity="0" result="BackgroundImageFix"/>
<feBlend mode="normal" in="SourceGraphic" in2="BackgroundImageFix" result="shape"/>
<feGaussianBlur stdDeviation="2" result="effect1_foregroundBlur_457_2223"/>
</filter>
<filter id="filter13_f_457_2223" x="329.194" y="104.525" width="21.7334" height="21.7168" filterUnits="userSpaceOnUse" color-interpolation-filters="sRGB">
<feFlood flood-opacity="0" result="BackgroundImageFix"/>
<feBlend mode="normal" in="SourceGraphic" in2="BackgroundImageFix" result="shape"/>
<feGaussianBlur stdDeviation="2" result="effect1_foregroundBlur_457_2223"/>
</filter>
<filter id="filter14_f_457_2223" x="177.688" y="76.5254" width="21.7334" height="21.7168" filterUnits="userSpaceOnUse" color-interpolation-filters="sRGB">
<feFlood flood-opacity="0" result="BackgroundImageFix"/>
<feBlend mode="normal" in="SourceGraphic" in2="BackgroundImageFix" result="shape"/>
<feGaussianBlur stdDeviation="2" result="effect1_foregroundBlur_457_2223"/>
</filter>
<filter id="filter15_f_457_2223" x="209.055" y="157.064" width="21.7334" height="21.7168" filterUnits="userSpaceOnUse" color-interpolation-filters="sRGB">
<feFlood flood-opacity="0" result="BackgroundImageFix"/>
<feBlend mode="normal" in="SourceGraphic" in2="BackgroundImageFix" result="shape"/>
<feGaussianBlur stdDeviation="2" result="effect1_foregroundBlur_457_2223"/>
</filter>
<filter id="filter16_f_457_2223" x="341.209" y="146.064" width="21.7334" height="21.7168" filterUnits="userSpaceOnUse" color-interpolation-filters="sRGB">
<feFlood flood-opacity="0" result="BackgroundImageFix"/>
<feBlend mode="normal" in="SourceGraphic" in2="BackgroundImageFix" result="shape"/>
<feGaussianBlur stdDeviation="2" result="effect1_foregroundBlur_457_2223"/>
</filter>
<filter id="filter17_f_457_2223" x="165.674" y="118.064" width="21.7334" height="21.7168" filterUnits="userSpaceOnUse" color-interpolation-filters="sRGB">
<feFlood flood-opacity="0" result="BackgroundImageFix"/>
<feBlend mode="normal" in="SourceGraphic" in2="BackgroundImageFix" result="shape"/>
<feGaussianBlur stdDeviation="2" result="effect1_foregroundBlur_457_2223"/>
</filter>
<filter id="filter18_f_457_2223" x="240.091" y="116.064" width="21.7334" height="21.7168" filterUnits="userSpaceOnUse" color-interpolation-filters="sRGB">
<feFlood flood-opacity="0" result="BackgroundImageFix"/>
<feBlend mode="normal" in="SourceGraphic" in2="BackgroundImageFix" result="shape"/>
<feGaussianBlur stdDeviation="2" result="effect1_foregroundBlur_457_2223"/>
</filter>
<filter id="filter19_f_457_2223" x="372.245" y="105.064" width="21.7334" height="21.7168" filterUnits="userSpaceOnUse" color-interpolation-filters="sRGB">
<feFlood flood-opacity="0" result="BackgroundImageFix"/>
<feBlend mode="normal" in="SourceGraphic" in2="BackgroundImageFix" result="shape"/>
<feGaussianBlur stdDeviation="2" result="effect1_foregroundBlur_457_2223"/>
</filter>
<filter id="filter20_f_457_2223" x="134.638" y="77.0645" width="21.7334" height="21.7168" filterUnits="userSpaceOnUse" color-interpolation-filters="sRGB">
<feFlood flood-opacity="0" result="BackgroundImageFix"/>
<feBlend mode="normal" in="SourceGraphic" in2="BackgroundImageFix" result="shape"/>
<feGaussianBlur stdDeviation="2" result="effect1_foregroundBlur_457_2223"/>
</filter>
<filter id="filter21_f_457_2223" x="163.001" y="80.0645" width="21.7334" height="21.7168" filterUnits="userSpaceOnUse" color-interpolation-filters="sRGB">
<feFlood flood-opacity="0" result="BackgroundImageFix"/>
<feBlend mode="normal" in="SourceGraphic" in2="BackgroundImageFix" result="shape"/>
<feGaussianBlur stdDeviation="2" result="effect1_foregroundBlur_457_2223"/>
</filter>
<filter id="filter22_f_457_2223" x="295.155" y="69.0645" width="21.7334" height="21.7168" filterUnits="userSpaceOnUse" color-interpolation-filters="sRGB">
<feFlood flood-opacity="0" result="BackgroundImageFix"/>
<feBlend mode="normal" in="SourceGraphic" in2="BackgroundImageFix" result="shape"/>
<feGaussianBlur stdDeviation="2" result="effect1_foregroundBlur_457_2223"/>
</filter>
<filter id="filter23_f_457_2223" x="211.728" y="41.0645" width="21.7334" height="21.7168" filterUnits="userSpaceOnUse" color-interpolation-filters="sRGB">
<feFlood flood-opacity="0" result="BackgroundImageFix"/>
<feBlend mode="normal" in="SourceGraphic" in2="BackgroundImageFix" result="shape"/>
<feGaussianBlur stdDeviation="2" result="effect1_foregroundBlur_457_2223"/>
</filter>
<filter id="filter24_f_457_2223" x="154.744" y="156.744" width="22.0928" height="22.0762" filterUnits="userSpaceOnUse" color-interpolation-filters="sRGB">
<feFlood flood-opacity="0" result="BackgroundImageFix"/>
<feBlend mode="normal" in="SourceGraphic" in2="BackgroundImageFix" result="shape"/>
<feGaussianBlur stdDeviation="2" result="effect1_foregroundBlur_457_2223"/>
</filter>
<filter id="filter25_f_457_2223" x="286.898" y="145.744" width="22.0928" height="22.0762" filterUnits="userSpaceOnUse" color-interpolation-filters="sRGB">
<feFlood flood-opacity="0" result="BackgroundImageFix"/>
<feBlend mode="normal" in="SourceGraphic" in2="BackgroundImageFix" result="shape"/>
<feGaussianBlur stdDeviation="2" result="effect1_foregroundBlur_457_2223"/>
</filter>
<filter id="filter26_f_457_2223" x="219.625" y="117.744" width="22.0928" height="22.0762" filterUnits="userSpaceOnUse" color-interpolation-filters="sRGB">
<feFlood flood-opacity="0" result="BackgroundImageFix"/>
<feBlend mode="normal" in="SourceGraphic" in2="BackgroundImageFix" result="shape"/>
<feGaussianBlur stdDeviation="2" result="effect1_foregroundBlur_457_2223"/>
</filter>
<filter id="filter27_f_457_2223" x="133.72" y="120.744" width="22.0928" height="22.0762" filterUnits="userSpaceOnUse" color-interpolation-filters="sRGB">
<feFlood flood-opacity="0" result="BackgroundImageFix"/>
<feBlend mode="normal" in="SourceGraphic" in2="BackgroundImageFix" result="shape"/>
<feGaussianBlur stdDeviation="2" result="effect1_foregroundBlur_457_2223"/>
</filter>
<filter id="filter28_f_457_2223" x="265.874" y="109.744" width="22.0928" height="22.0762" filterUnits="userSpaceOnUse" color-interpolation-filters="sRGB">
<feFlood flood-opacity="0" result="BackgroundImageFix"/>
<feBlend mode="normal" in="SourceGraphic" in2="BackgroundImageFix" result="shape"/>
<feGaussianBlur stdDeviation="2" result="effect1_foregroundBlur_457_2223"/>
</filter>
<filter id="filter29_f_457_2223" x="240.648" y="81.7441" width="22.0928" height="22.0762" filterUnits="userSpaceOnUse" color-interpolation-filters="sRGB">
<feFlood flood-opacity="0" result="BackgroundImageFix"/>
<feBlend mode="normal" in="SourceGraphic" in2="BackgroundImageFix" result="shape"/>
<feGaussianBlur stdDeviation="2" result="effect1_foregroundBlur_457_2223"/>
</filter>
<filter id="filter30_f_457_2223" x="24.8291" y="164.338" width="20.2979" height="20.2832" filterUnits="userSpaceOnUse" color-interpolation-filters="sRGB">
<feFlood flood-opacity="0" result="BackgroundImageFix"/>
<feBlend mode="normal" in="SourceGraphic" in2="BackgroundImageFix" result="shape"/>
<feGaussianBlur stdDeviation="2" result="effect1_foregroundBlur_457_2223"/>
</filter>
<filter id="filter31_f_457_2223" x="156.981" y="153.338" width="20.2979" height="20.2832" filterUnits="userSpaceOnUse" color-interpolation-filters="sRGB">
<feFlood flood-opacity="0" result="BackgroundImageFix"/>
<feBlend mode="normal" in="SourceGraphic" in2="BackgroundImageFix" result="shape"/>
<feGaussianBlur stdDeviation="2" result="effect1_foregroundBlur_457_2223"/>
</filter>
<filter id="filter32_f_457_2223" x="351.336" y="125.338" width="20.2979" height="20.2832" filterUnits="userSpaceOnUse" color-interpolation-filters="sRGB">
<feFlood flood-opacity="0" result="BackgroundImageFix"/>
<feBlend mode="normal" in="SourceGraphic" in2="BackgroundImageFix" result="shape"/>
<feGaussianBlur stdDeviation="2" result="effect1_foregroundBlur_457_2223"/>
</filter>
<filter id="filter33_f_457_2223" x="25.5938" y="119.744" width="22.0928" height="22.0762" filterUnits="userSpaceOnUse" color-interpolation-filters="sRGB">
<feFlood flood-opacity="0" result="BackgroundImageFix"/>
<feBlend mode="normal" in="SourceGraphic" in2="BackgroundImageFix" result="shape"/>
<feGaussianBlur stdDeviation="2" result="effect1_foregroundBlur_457_2223"/>
</filter>
<filter id="filter34_f_457_2223" x="157.748" y="108.744" width="22.0928" height="22.0762" filterUnits="userSpaceOnUse" color-interpolation-filters="sRGB">
<feFlood flood-opacity="0" result="BackgroundImageFix"/>
<feBlend mode="normal" in="SourceGraphic" in2="BackgroundImageFix" result="shape"/>
<feGaussianBlur stdDeviation="2" result="effect1_foregroundBlur_457_2223"/>
</filter>
<filter id="filter35_f_457_2223" x="348.774" y="80.7441" width="22.0928" height="22.0762" filterUnits="userSpaceOnUse" color-interpolation-filters="sRGB">
<feFlood flood-opacity="0" result="BackgroundImageFix"/>
<feBlend mode="normal" in="SourceGraphic" in2="BackgroundImageFix" result="shape"/>
<feGaussianBlur stdDeviation="2" result="effect1_foregroundBlur_457_2223"/>
</filter>
<filter id="filter36_f_457_2223" x="57.6309" y="161.744" width="22.0928" height="22.0762" filterUnits="userSpaceOnUse" color-interpolation-filters="sRGB">
<feFlood flood-opacity="0" result="BackgroundImageFix"/>
<feBlend mode="normal" in="SourceGraphic" in2="BackgroundImageFix" result="shape"/>
<feGaussianBlur stdDeviation="2" result="effect1_foregroundBlur_457_2223"/>
</filter>
<filter id="filter37_f_457_2223" x="189.785" y="150.744" width="22.0928" height="22.0762" filterUnits="userSpaceOnUse" color-interpolation-filters="sRGB">
<feFlood flood-opacity="0" result="BackgroundImageFix"/>
<feBlend mode="normal" in="SourceGraphic" in2="BackgroundImageFix" result="shape"/>
<feGaussianBlur stdDeviation="2" result="effect1_foregroundBlur_457_2223"/>
</filter>
<filter id="filter38_f_457_2223" x="316.738" y="122.744" width="22.0928" height="22.0762" filterUnits="userSpaceOnUse" color-interpolation-filters="sRGB">
<feFlood flood-opacity="0" result="BackgroundImageFix"/>
<feBlend mode="normal" in="SourceGraphic" in2="BackgroundImageFix" result="shape"/>
<feGaussianBlur stdDeviation="2" result="effect1_foregroundBlur_457_2223"/>
</filter>
<filter id="filter39_f_457_2223" x="93.6729" y="132.744" width="22.0928" height="22.0762" filterUnits="userSpaceOnUse" color-interpolation-filters="sRGB">
<feFlood flood-opacity="0" result="BackgroundImageFix"/>
<feBlend mode="normal" in="SourceGraphic" in2="BackgroundImageFix" result="shape"/>
<feGaussianBlur stdDeviation="2" result="effect1_foregroundBlur_457_2223"/>
</filter>
<filter id="filter40_f_457_2223" x="225.827" y="121.744" width="22.0928" height="22.0762" filterUnits="userSpaceOnUse" color-interpolation-filters="sRGB">
<feFlood flood-opacity="0" result="BackgroundImageFix"/>
<feBlend mode="normal" in="SourceGraphic" in2="BackgroundImageFix" result="shape"/>
<feGaussianBlur stdDeviation="2" result="effect1_foregroundBlur_457_2223"/>
</filter>
<filter id="filter41_f_457_2223" x="280.696" y="93.7441" width="22.0928" height="22.0762" filterUnits="userSpaceOnUse" color-interpolation-filters="sRGB">
<feFlood flood-opacity="0" result="BackgroundImageFix"/>
<feBlend mode="normal" in="SourceGraphic" in2="BackgroundImageFix" result="shape"/>
<feGaussianBlur stdDeviation="2" result="effect1_foregroundBlur_457_2223"/>
</filter>
<filter id="filter42_f_457_2223" x="105.688" y="83.7441" width="22.0928" height="22.0762" filterUnits="userSpaceOnUse" color-interpolation-filters="sRGB">
<feFlood flood-opacity="0" result="BackgroundImageFix"/>
<feBlend mode="normal" in="SourceGraphic" in2="BackgroundImageFix" result="shape"/>
<feGaussianBlur stdDeviation="2" result="effect1_foregroundBlur_457_2223"/>
</filter>
<filter id="filter43_f_457_2223" x="237.841" y="72.7441" width="22.0928" height="22.0762" filterUnits="userSpaceOnUse" color-interpolation-filters="sRGB">
<feFlood flood-opacity="0" result="BackgroundImageFix"/>
<feBlend mode="normal" in="SourceGraphic" in2="BackgroundImageFix" result="shape"/>
<feGaussianBlur stdDeviation="2" result="effect1_foregroundBlur_457_2223"/>
</filter>
<filter id="filter44_f_457_2223" x="268.682" y="44.7441" width="22.0928" height="22.0762" filterUnits="userSpaceOnUse" color-interpolation-filters="sRGB">
<feFlood flood-opacity="0" result="BackgroundImageFix"/>
<feBlend mode="normal" in="SourceGraphic" in2="BackgroundImageFix" result="shape"/>
<feGaussianBlur stdDeviation="2" result="effect1_foregroundBlur_457_2223"/>
</filter>
<filter id="filter45_f_457_2223" x="110.928" y="166.338" width="20.2979" height="20.2832" filterUnits="userSpaceOnUse" color-interpolation-filters="sRGB">
<feFlood flood-opacity="0" result="BackgroundImageFix"/>
<feBlend mode="normal" in="SourceGraphic" in2="BackgroundImageFix" result="shape"/>
<feGaussianBlur stdDeviation="2" result="effect1_foregroundBlur_457_2223"/>
</filter>
<filter id="filter46_f_457_2223" x="243.083" y="155.338" width="20.2979" height="20.2832" filterUnits="userSpaceOnUse" color-interpolation-filters="sRGB">
<feFlood flood-opacity="0" result="BackgroundImageFix"/>
<feBlend mode="normal" in="SourceGraphic" in2="BackgroundImageFix" result="shape"/>
<feGaussianBlur stdDeviation="2" result="effect1_foregroundBlur_457_2223"/>
</filter>
<filter id="filter47_f_457_2223" x="265.236" y="127.338" width="20.2979" height="20.2832" filterUnits="userSpaceOnUse" color-interpolation-filters="sRGB">
<feFlood flood-opacity="0" result="BackgroundImageFix"/>
<feBlend mode="normal" in="SourceGraphic" in2="BackgroundImageFix" result="shape"/>
<feGaussianBlur stdDeviation="2" result="effect1_foregroundBlur_457_2223"/>
</filter>
<filter id="filter48_f_457_2223" x="67.8779" y="108.338" width="20.2979" height="20.2832" filterUnits="userSpaceOnUse" color-interpolation-filters="sRGB">
<feFlood flood-opacity="0" result="BackgroundImageFix"/>
<feBlend mode="normal" in="SourceGraphic" in2="BackgroundImageFix" result="shape"/>
<feGaussianBlur stdDeviation="2" result="effect1_foregroundBlur_457_2223"/>
</filter>
<filter id="filter49_f_457_2223" x="200.032" y="97.3379" width="20.2979" height="20.2832" filterUnits="userSpaceOnUse" color-interpolation-filters="sRGB">
<feFlood flood-opacity="0" result="BackgroundImageFix"/>
<feBlend mode="normal" in="SourceGraphic" in2="BackgroundImageFix" result="shape"/>
<feGaussianBlur stdDeviation="2" result="effect1_foregroundBlur_457_2223"/>
</filter>
<filter id="filter50_f_457_2223" x="308.286" y="69.3379" width="20.2979" height="20.2832" filterUnits="userSpaceOnUse" color-interpolation-filters="sRGB">
<feFlood flood-opacity="0" result="BackgroundImageFix"/>
<feBlend mode="normal" in="SourceGraphic" in2="BackgroundImageFix" result="shape"/>
<feGaussianBlur stdDeviation="2" result="effect1_foregroundBlur_457_2223"/>
</filter>
<filter id="filter51_f_457_2223" x="179.007" y="99.3379" width="20.2979" height="20.2832" filterUnits="userSpaceOnUse" color-interpolation-filters="sRGB">
<feFlood flood-opacity="0" result="BackgroundImageFix"/>
<feBlend mode="normal" in="SourceGraphic" in2="BackgroundImageFix" result="shape"/>
<feGaussianBlur stdDeviation="2" result="effect1_foregroundBlur_457_2223"/>
</filter>
<filter id="filter52_f_457_2223" x="311.161" y="88.3379" width="20.2979" height="20.2832" filterUnits="userSpaceOnUse" color-interpolation-filters="sRGB">
<feFlood flood-opacity="0" result="BackgroundImageFix"/>
<feBlend mode="normal" in="SourceGraphic" in2="BackgroundImageFix" result="shape"/>
<feGaussianBlur stdDeviation="2" result="effect1_foregroundBlur_457_2223"/>
</filter>
<filter id="filter53_f_457_2223" x="197.157" y="60.3379" width="20.2979" height="20.2832" filterUnits="userSpaceOnUse" color-interpolation-filters="sRGB">
<feFlood flood-opacity="0" result="BackgroundImageFix"/>
<feBlend mode="normal" in="SourceGraphic" in2="BackgroundImageFix" result="shape"/>
<feGaussianBlur stdDeviation="2" result="effect1_foregroundBlur_457_2223"/>
</filter>
<filter id="filter54_f_457_2223" x="186.016" y="161.338" width="20.2979" height="20.2832" filterUnits="userSpaceOnUse" color-interpolation-filters="sRGB">
<feFlood flood-opacity="0" result="BackgroundImageFix"/>
<feBlend mode="normal" in="SourceGraphic" in2="BackgroundImageFix" result="shape"/>
<feGaussianBlur stdDeviation="2" result="effect1_foregroundBlur_457_2223"/>
</filter>
<filter id="filter55_f_457_2223" x="318.17" y="150.338" width="20.2979" height="20.2832" filterUnits="userSpaceOnUse" color-interpolation-filters="sRGB">
<feFlood flood-opacity="0" result="BackgroundImageFix"/>
<feBlend mode="normal" in="SourceGraphic" in2="BackgroundImageFix" result="shape"/>
<feGaussianBlur stdDeviation="2" result="effect1_foregroundBlur_457_2223"/>
</filter>
<filter id="filter56_f_457_2223" x="190.148" y="122.338" width="20.2979" height="20.2832" filterUnits="userSpaceOnUse" color-interpolation-filters="sRGB">
<feFlood flood-opacity="0" result="BackgroundImageFix"/>
<feBlend mode="normal" in="SourceGraphic" in2="BackgroundImageFix" result="shape"/>
<feGaussianBlur stdDeviation="2" result="effect1_foregroundBlur_457_2223"/>
</filter>
<filter id="filter57_f_457_2223" x="140.035" y="58.3379" width="20.2979" height="20.2832" filterUnits="userSpaceOnUse" color-interpolation-filters="sRGB">
<feFlood flood-opacity="0" result="BackgroundImageFix"/>
<feBlend mode="normal" in="SourceGraphic" in2="BackgroundImageFix" result="shape"/>
<feGaussianBlur stdDeviation="2" result="effect1_foregroundBlur_457_2223"/>
</filter>
<filter id="filter58_f_457_2223" x="272.188" y="47.3379" width="20.2979" height="20.2832" filterUnits="userSpaceOnUse" color-interpolation-filters="sRGB">
<feFlood flood-opacity="0" result="BackgroundImageFix"/>
<feBlend mode="normal" in="SourceGraphic" in2="BackgroundImageFix" result="shape"/>
<feGaussianBlur stdDeviation="2" result="effect1_foregroundBlur_457_2223"/>
</filter>
<filter id="filter59_f_457_2223" x="236.129" y="19.3379" width="20.2979" height="20.2832" filterUnits="userSpaceOnUse" color-interpolation-filters="sRGB">
<feFlood flood-opacity="0" result="BackgroundImageFix"/>
<feBlend mode="normal" in="SourceGraphic" in2="BackgroundImageFix" result="shape"/>
<feGaussianBlur stdDeviation="2" result="effect1_foregroundBlur_457_2223"/>
</filter>
<filter id="filter60_f_457_2223" x="253.094" y="157.338" width="20.2979" height="20.2832" filterUnits="userSpaceOnUse" color-interpolation-filters="sRGB">
<feFlood flood-opacity="0" result="BackgroundImageFix"/>
<feBlend mode="normal" in="SourceGraphic" in2="BackgroundImageFix" result="shape"/>
<feGaussianBlur stdDeviation="2" result="effect1_foregroundBlur_457_2223"/>
</filter>
<filter id="filter61_f_457_2223" x="385.248" y="146.338" width="20.2979" height="20.2832" filterUnits="userSpaceOnUse" color-interpolation-filters="sRGB">
<feFlood flood-opacity="0" result="BackgroundImageFix"/>
<feBlend mode="normal" in="SourceGraphic" in2="BackgroundImageFix" result="shape"/>
<feGaussianBlur stdDeviation="2" result="effect1_foregroundBlur_457_2223"/>
</filter>
<filter id="filter62_f_457_2223" x="123.07" y="118.338" width="20.2979" height="20.2832" filterUnits="userSpaceOnUse" color-interpolation-filters="sRGB">
<feFlood flood-opacity="0" result="BackgroundImageFix"/>
<feBlend mode="normal" in="SourceGraphic" in2="BackgroundImageFix" result="shape"/>
<feGaussianBlur stdDeviation="2" result="effect1_foregroundBlur_457_2223"/>
</filter>
<filter id="filter63_f_457_2223" x="242.081" y="75.3379" width="20.2979" height="20.2832" filterUnits="userSpaceOnUse" color-interpolation-filters="sRGB">
<feFlood flood-opacity="0" result="BackgroundImageFix"/>
<feBlend mode="normal" in="SourceGraphic" in2="BackgroundImageFix" result="shape"/>
<feGaussianBlur stdDeviation="2" result="effect1_foregroundBlur_457_2223"/>
</filter>
<filter id="filter64_f_457_2223" x="374.235" y="64.3379" width="20.2979" height="20.2832" filterUnits="userSpaceOnUse" color-interpolation-filters="sRGB">
<feFlood flood-opacity="0" result="BackgroundImageFix"/>
<feBlend mode="normal" in="SourceGraphic" in2="BackgroundImageFix" result="shape"/>
<feGaussianBlur stdDeviation="2" result="effect1_foregroundBlur_457_2223"/>
</filter>
<filter id="filter65_f_457_2223" x="134.083" y="36.3379" width="20.2979" height="20.2832" filterUnits="userSpaceOnUse" color-interpolation-filters="sRGB">
<feFlood flood-opacity="0" result="BackgroundImageFix"/>
<feBlend mode="normal" in="SourceGraphic" in2="BackgroundImageFix" result="shape"/>
<feGaussianBlur stdDeviation="2" result="effect1_foregroundBlur_457_2223"/>
</filter>
<filter id="filter66_f_457_2223" x="303.152" y="146.338" width="20.2979" height="20.2832" filterUnits="userSpaceOnUse" color-interpolation-filters="sRGB">
<feFlood flood-opacity="0" result="BackgroundImageFix"/>
<feBlend mode="normal" in="SourceGraphic" in2="BackgroundImageFix" result="shape"/>
<feGaussianBlur stdDeviation="2" result="effect1_foregroundBlur_457_2223"/>
</filter>
<filter id="filter67_f_457_2223" x="435.306" y="135.338" width="20.2979" height="20.2832" filterUnits="userSpaceOnUse" color-interpolation-filters="sRGB">
<feFlood flood-opacity="0" result="BackgroundImageFix"/>
<feBlend mode="normal" in="SourceGraphic" in2="BackgroundImageFix" result="shape"/>
<feGaussianBlur stdDeviation="2" result="effect1_foregroundBlur_457_2223"/>
</filter>
<filter id="filter68_f_457_2223" x="73.0117" y="107.338" width="20.2979" height="20.2832" filterUnits="userSpaceOnUse" color-interpolation-filters="sRGB">
<feFlood flood-opacity="0" result="BackgroundImageFix"/>
<feBlend mode="normal" in="SourceGraphic" in2="BackgroundImageFix" result="shape"/>
<feGaussianBlur stdDeviation="2" result="effect1_foregroundBlur_457_2223"/>
</filter>
<filter id="filter69_f_457_2223" x="274.118" y="105.338" width="20.2979" height="20.2832" filterUnits="userSpaceOnUse" color-interpolation-filters="sRGB">
<feFlood flood-opacity="0" result="BackgroundImageFix"/>
<feBlend mode="normal" in="SourceGraphic" in2="BackgroundImageFix" result="shape"/>
<feGaussianBlur stdDeviation="2" result="effect1_foregroundBlur_457_2223"/>
</filter>
<filter id="filter70_f_457_2223" x="406.272" y="94.3379" width="20.2979" height="20.2832" filterUnits="userSpaceOnUse" color-interpolation-filters="sRGB">
<feFlood flood-opacity="0" result="BackgroundImageFix"/>
<feBlend mode="normal" in="SourceGraphic" in2="BackgroundImageFix" result="shape"/>
<feGaussianBlur stdDeviation="2" result="effect1_foregroundBlur_457_2223"/>
</filter>
<filter id="filter71_f_457_2223" x="102.045" y="66.3379" width="20.2979" height="20.2832" filterUnits="userSpaceOnUse" color-interpolation-filters="sRGB">
<feFlood flood-opacity="0" result="BackgroundImageFix"/>
<feBlend mode="normal" in="SourceGraphic" in2="BackgroundImageFix" result="shape"/>
<feGaussianBlur stdDeviation="2" result="effect1_foregroundBlur_457_2223"/>
</filter>
</defs>
</svg>
