<svg width="479" height="176" viewBox="0 0 479 176" fill="none" xmlns="http://www.w3.org/2000/svg">
<ellipse cx="19.5205" cy="16.0018" rx="19.5205" ry="16.0018" transform="matrix(0.950322 0.311268 -0.311924 0.950107 208.214 19)" fill="#FFE06B"/>
<path d="M249.291 27.698C249.291 38.0246 238.358 56 228.639 56C218.92 56 217.254 38.0246 217.254 27.698C217.254 17.3714 221.974 9 231.693 9C241.412 9 249.291 17.3714 249.291 27.698Z" fill="#FFE06B"/>
<g filter="url(#filter0_f_457_2603)">
<ellipse cx="224.262" cy="33" rx="5.00583" ry="5" fill="white"/>
</g>
<ellipse cx="19.5205" cy="16.0018" rx="19.5205" ry="16.0018" transform="matrix(0.950322 0.311268 -0.311924 0.950107 288.307 83)" fill="#FFE06B"/>
<path d="M329.384 91.698C329.384 102.025 318.451 120 308.732 120C299.012 120 297.347 102.025 297.347 91.698C297.347 81.3714 302.067 73 311.786 73C321.505 73 329.384 81.3714 329.384 91.698Z" fill="#FFE06B"/>
<g filter="url(#filter1_f_457_2603)">
<ellipse cx="304.354" cy="97" rx="5.00583" ry="5" fill="white"/>
</g>
<ellipse cx="19.5205" cy="16.0018" rx="19.5205" ry="16.0018" transform="matrix(0.950322 0.311268 -0.311924 0.950107 273.289 127)" fill="#FFE06B"/>
<path d="M314.366 135.698C314.366 146.025 303.433 164 293.714 164C283.995 164 282.329 146.025 282.329 135.698C282.329 125.371 287.049 117 296.768 117C306.488 117 314.366 125.371 314.366 135.698Z" fill="#FFE06B"/>
<g filter="url(#filter2_f_457_2603)">
<ellipse cx="289.337" cy="141" rx="5.00583" ry="5" fill="white"/>
</g>
<ellipse cx="19.5205" cy="16.0018" rx="19.5205" ry="16.0018" transform="matrix(0.950322 0.311268 -0.311924 0.950107 308.33 124)" fill="#FFE06B"/>
<path d="M349.407 132.698C349.407 143.025 338.474 161 328.755 161C319.036 161 317.37 143.025 317.37 132.698C317.37 122.371 322.09 114 331.809 114C341.529 114 349.407 122.371 349.407 132.698Z" fill="#FFE06B"/>
<g filter="url(#filter3_f_457_2603)">
<ellipse cx="324.378" cy="138" rx="5.00583" ry="5" fill="white"/>
</g>
<ellipse cx="26.7769" cy="21.9502" rx="26.7769" ry="21.9502" transform="matrix(0.950322 0.311268 -0.311924 0.950107 185.894 70.1777)" fill="#FFE06B"/>
<path d="M242.24 82.1095C242.24 96.2748 227.242 120.932 213.91 120.932C200.578 120.932 198.293 96.2748 198.293 82.1095C198.293 67.9442 204.768 56.4609 218.1 56.4609C231.432 56.4609 242.24 67.9442 242.24 82.1095Z" fill="#FFE06B"/>
<g filter="url(#filter4_f_457_2603)">
<ellipse cx="207.907" cy="89.384" rx="6.86665" ry="6.85865" fill="white"/>
</g>
<ellipse cx="26.7769" cy="21.9502" rx="26.7769" ry="21.9502" transform="matrix(0.950322 0.311268 -0.311924 0.950107 197.908 111.717)" fill="#FFE06B"/>
<path d="M254.254 123.649C254.254 137.814 239.257 162.471 225.925 162.471C212.593 162.471 210.308 137.814 210.308 123.649C210.308 109.483 216.783 98 230.115 98C243.446 98 254.254 109.483 254.254 123.649Z" fill="#FFE06B"/>
<g filter="url(#filter5_f_457_2603)">
<ellipse cx="219.921" cy="130.923" rx="6.86665" ry="6.85865" fill="white"/>
</g>
<ellipse cx="26.7769" cy="21.9502" rx="26.7769" ry="21.9502" transform="matrix(0.950322 0.311268 -0.311924 0.950107 228.944 70.7168)" fill="#FFE06B"/>
<path d="M285.29 82.6486C285.29 96.8139 270.293 121.471 256.961 121.471C243.629 121.471 241.344 96.8139 241.344 82.6486C241.344 68.4833 247.819 57 261.151 57C274.483 57 285.29 68.4833 285.29 82.6486Z" fill="#FFE06B"/>
<g filter="url(#filter6_f_457_2603)">
<ellipse cx="250.957" cy="89.9231" rx="6.86665" ry="6.85865" fill="white"/>
</g>
<ellipse cx="26.7769" cy="21.9502" rx="26.7769" ry="21.9502" transform="matrix(0.950322 0.311268 -0.311924 0.950107 151.854 34.7168)" fill="#FFE06B"/>
<path d="M208.2 46.6486C208.2 60.8139 193.203 85.4713 179.871 85.4713C166.539 85.4713 164.254 60.8139 164.254 46.6486C164.254 32.4833 170.729 21 184.061 21C197.393 21 208.2 32.4833 208.2 46.6486Z" fill="#FFE06B"/>
<g filter="url(#filter7_f_457_2603)">
<ellipse cx="173.868" cy="53.9231" rx="6.86665" ry="6.85865" fill="white"/>
</g>
<ellipse cx="26.7769" cy="21.9502" rx="26.7769" ry="21.9502" transform="matrix(-0.950322 0.311268 0.311924 0.950107 326.347 32.7168)" fill="#FFE06B"/>
<path d="M270.001 44.6486C270.001 58.8139 284.998 83.4713 298.33 83.4713C311.662 83.4713 313.947 58.8139 313.947 44.6486C313.947 30.4833 307.472 19 294.14 19C280.808 19 270.001 30.4833 270.001 44.6486Z" fill="#FFE06B"/>
<g filter="url(#filter8_f_457_2603)">
<ellipse cx="6.86665" cy="6.85865" rx="6.86665" ry="6.85865" transform="matrix(-1 0 0 1 311.2 45.0645)" fill="white"/>
</g>
<ellipse cx="27.4769" cy="22.524" rx="27.4769" ry="22.524" transform="matrix(0.950322 0.311268 -0.311924 0.950107 143.202 111.076)" fill="#FFE06B"/>
<path d="M201.021 123.319C201.021 137.855 185.631 163.157 171.951 163.157C158.27 163.157 155.926 137.855 155.926 123.319C155.926 108.783 162.57 97 176.25 97C189.931 97 201.021 108.783 201.021 123.319Z" fill="#FFE06B"/>
<g filter="url(#filter9_f_457_2603)">
<ellipse cx="165.79" cy="130.782" rx="7.04615" ry="7.03795" fill="white"/>
</g>
<ellipse cx="27.4769" cy="22.524" rx="27.4769" ry="22.524" transform="matrix(-0.950322 0.311268 0.311924 0.950107 334.999 109.076)" fill="#FFE06B"/>
<path d="M277.18 121.319C277.18 135.855 292.57 161.157 306.25 161.157C319.931 161.157 322.275 135.855 322.275 121.319C322.275 106.783 315.631 95 301.951 95C288.27 95 277.18 106.783 277.18 121.319Z" fill="#FFE06B"/>
<g filter="url(#filter10_f_457_2603)">
<ellipse cx="7.04615" cy="7.03795" rx="7.04615" ry="7.03795" transform="matrix(-1 0 0 1 319.457 121.744)" fill="white"/>
</g>
<ellipse cx="27.4769" cy="22.524" rx="27.4769" ry="22.524" transform="matrix(0.950322 0.311268 -0.311924 0.950107 122.178 75.0762)" fill="#FFE06B"/>
<path d="M179.997 87.3191C179.997 101.855 164.607 127.157 150.927 127.157C137.246 127.157 134.901 101.855 134.901 87.3191C134.901 72.7835 141.546 61 155.226 61C168.907 61 179.997 72.7835 179.997 87.3191Z" fill="#FFE06B"/>
<g filter="url(#filter11_f_457_2603)">
<ellipse cx="144.766" cy="94.7821" rx="7.04615" ry="7.03795" fill="white"/>
</g>
<ellipse cx="27.4769" cy="22.524" rx="27.4769" ry="22.524" transform="matrix(-0.950322 0.311268 0.311924 0.950107 356.023 73.0762)" fill="#FFE06B"/>
<path d="M298.204 85.3191C298.204 99.8547 313.594 125.157 327.275 125.157C340.955 125.157 343.3 99.8547 343.3 85.3191C343.3 70.7835 336.656 59 322.975 59C309.295 59 298.204 70.7835 298.204 85.3191Z" fill="#FFE06B"/>
<g filter="url(#filter12_f_457_2603)">
<ellipse cx="7.04615" cy="7.03795" rx="7.04615" ry="7.03795" transform="matrix(-1 0 0 1 340.481 85.7441)" fill="white"/>
</g>
<ellipse cx="23.9774" cy="19.6553" rx="23.9774" ry="19.6553" transform="matrix(0.950322 0.311268 -0.311924 0.950107 15.2656 120.283)" fill="#FEBF35"/>
<path d="M65.7211 130.967C65.7211 143.651 52.2914 165.731 40.3533 165.731C28.4152 165.731 26.3692 143.651 26.3692 130.967C26.3692 118.283 32.1671 108 44.1052 108C56.0433 108 65.7211 118.283 65.7211 130.967Z" fill="#FEBF35"/>
<g filter="url(#filter13_f_457_2603)">
<ellipse cx="34.9778" cy="137.479" rx="6.14874" ry="6.14157" fill="white"/>
</g>
<ellipse cx="23.9774" cy="19.6553" rx="23.9774" ry="19.6553" transform="matrix(-0.950322 0.311268 0.311924 0.950107 462.937 118.283)" fill="#FEBF35"/>
<path d="M412.481 128.967C412.481 141.651 425.911 163.731 437.849 163.731C449.787 163.731 451.833 141.651 451.833 128.967C451.833 116.283 446.035 106 434.097 106C422.159 106 412.481 116.283 412.481 128.967Z" fill="#FEBF35"/>
<g filter="url(#filter14_f_457_2603)">
<ellipse cx="6.14874" cy="6.14157" rx="6.14874" ry="6.14157" transform="matrix(-1 0 0 1 449.373 129.338)" fill="white"/>
</g>
<ellipse cx="27.4769" cy="22.524" rx="27.4769" ry="22.524" transform="matrix(0.950322 0.311268 -0.311924 0.950107 14.0518 74.0762)" fill="#FFE06B"/>
<path d="M71.8708 86.3191C71.8708 100.855 56.4811 126.157 42.8006 126.157C29.1201 126.157 26.7755 100.855 26.7755 86.3191C26.7755 71.7835 33.4196 60 47.1001 60C60.7806 60 71.8708 71.7835 71.8708 86.3191Z" fill="#FFE06B"/>
<g filter="url(#filter15_f_457_2603)">
<ellipse cx="36.6399" cy="93.7821" rx="7.04615" ry="7.03795" fill="white"/>
</g>
<ellipse cx="27.4769" cy="22.524" rx="27.4769" ry="22.524" transform="matrix(-0.950322 0.311268 0.311924 0.950107 464.149 72.0762)" fill="#FFE06B"/>
<path d="M406.33 84.3191C406.33 98.8547 421.72 124.157 435.401 124.157C449.081 124.157 451.426 98.8547 451.426 84.3191C451.426 69.7835 444.782 58 431.101 58C417.421 58 406.33 69.7835 406.33 84.3191Z" fill="#FFE06B"/>
<g filter="url(#filter16_f_457_2603)">
<ellipse cx="7.04615" cy="7.03795" rx="7.04615" ry="7.03795" transform="matrix(-1 0 0 1 448.607 84.7441)" fill="white"/>
</g>
<ellipse cx="27.4769" cy="22.524" rx="27.4769" ry="22.524" transform="matrix(0.950322 0.311268 -0.311924 0.950107 46.0889 116.076)" fill="#FFE06B"/>
<path d="M103.908 128.319C103.908 142.855 88.5182 168.157 74.8377 168.157C61.1572 168.157 58.8126 142.855 58.8126 128.319C58.8126 113.783 65.4567 102 79.1372 102C92.8177 102 103.908 113.783 103.908 128.319Z" fill="#FFE06B"/>
<g filter="url(#filter17_f_457_2603)">
<ellipse cx="68.677" cy="135.782" rx="7.04615" ry="7.03795" fill="white"/>
</g>
<ellipse cx="27.4769" cy="22.524" rx="27.4769" ry="22.524" transform="matrix(-0.950322 0.311268 0.311924 0.950107 432.112 114.076)" fill="#FFE06B"/>
<path d="M374.293 126.319C374.293 140.855 389.683 166.157 403.363 166.157C417.044 166.157 419.389 140.855 419.389 126.319C419.389 111.783 412.744 100 399.064 100C385.383 100 374.293 111.783 374.293 126.319Z" fill="#FFE06B"/>
<g filter="url(#filter18_f_457_2603)">
<ellipse cx="7.04615" cy="7.03795" rx="7.04615" ry="7.03795" transform="matrix(-1 0 0 1 416.57 126.744)" fill="white"/>
</g>
<ellipse cx="27.4769" cy="22.524" rx="27.4769" ry="22.524" transform="matrix(0.950322 0.311268 -0.311924 0.950107 82.1309 87.0762)" fill="#FFE06B"/>
<path d="M139.95 99.3191C139.95 113.855 124.56 139.157 110.88 139.157C97.1992 139.157 94.8546 113.855 94.8546 99.3191C94.8546 84.7835 101.499 73 115.179 73C128.86 73 139.95 84.7835 139.95 99.3191Z" fill="#FFE06B"/>
<g filter="url(#filter19_f_457_2603)">
<ellipse cx="104.719" cy="106.782" rx="7.04615" ry="7.03795" fill="white"/>
</g>
<ellipse cx="27.4769" cy="22.524" rx="27.4769" ry="22.524" transform="matrix(-0.950322 0.311268 0.311924 0.950107 396.07 85.0762)" fill="#FFE06B"/>
<path d="M338.251 97.3191C338.251 111.855 353.641 137.157 367.321 137.157C381.002 137.157 383.347 111.855 383.347 97.3191C383.347 82.7835 376.702 71 363.022 71C349.342 71 338.251 82.7835 338.251 97.3191Z" fill="#FFE06B"/>
<g filter="url(#filter20_f_457_2603)">
<ellipse cx="7.04615" cy="7.03795" rx="7.04615" ry="7.03795" transform="matrix(-1 0 0 1 380.528 97.7441)" fill="white"/>
</g>
<ellipse cx="27.4769" cy="22.524" rx="27.4769" ry="22.524" transform="matrix(0.950322 0.311268 -0.311924 0.950107 94.1455 38.0762)" fill="#FFE06B"/>
<path d="M151.965 50.3191C151.965 64.8547 136.575 90.1567 122.894 90.1567C109.214 90.1567 106.869 64.8547 106.869 50.3191C106.869 35.7835 113.513 24 127.194 24C140.874 24 151.965 35.7835 151.965 50.3191Z" fill="#FFE06B"/>
<g filter="url(#filter21_f_457_2603)">
<ellipse cx="116.734" cy="57.7821" rx="7.04615" ry="7.03795" fill="white"/>
</g>
<ellipse cx="27.4769" cy="22.524" rx="27.4769" ry="22.524" transform="matrix(-0.950322 0.311268 0.311924 0.950107 384.057 36.0762)" fill="#FFE06B"/>
<path d="M326.238 48.3191C326.238 62.8547 341.627 88.1567 355.308 88.1567C368.988 88.1567 371.333 62.8547 371.333 48.3191C371.333 33.7835 364.689 22 351.008 22C337.328 22 326.238 33.7835 326.238 48.3191Z" fill="#FFE06B"/>
<g filter="url(#filter22_f_457_2603)">
<ellipse cx="7.04615" cy="7.03795" rx="7.04615" ry="7.03795" transform="matrix(-1 0 0 1 368.515 48.7441)" fill="white"/>
</g>
<ellipse cx="23.9774" cy="19.6553" rx="23.9774" ry="19.6553" transform="matrix(0.950322 0.311268 -0.311924 0.950107 101.365 122.283)" fill="#FEBF35"/>
<path d="M151.821 132.967C151.821 145.651 138.391 167.731 126.453 167.731C114.515 167.731 112.469 145.651 112.469 132.967C112.469 120.283 118.267 110 130.205 110C142.143 110 151.821 120.283 151.821 132.967Z" fill="#FEBF35"/>
<g filter="url(#filter23_f_457_2603)">
<ellipse cx="121.077" cy="139.479" rx="6.14874" ry="6.14157" fill="white"/>
</g>
<ellipse cx="23.9774" cy="19.6553" rx="23.9774" ry="19.6553" transform="matrix(-0.950322 0.311268 0.311924 0.950107 376.836 120.283)" fill="#FEBF35"/>
<path d="M326.381 130.967C326.381 143.651 339.81 165.731 351.748 165.731C363.686 165.731 365.732 143.651 365.732 130.967C365.732 118.283 359.934 108 347.996 108C336.058 108 326.381 118.283 326.381 130.967Z" fill="#FEBF35"/>
<g filter="url(#filter24_f_457_2603)">
<ellipse cx="6.14874" cy="6.14157" rx="6.14874" ry="6.14157" transform="matrix(-1 0 0 1 363.272 131.338)" fill="white"/>
</g>
<ellipse cx="23.9774" cy="19.6553" rx="23.9774" ry="19.6553" transform="matrix(0.950322 0.311268 -0.311924 0.950107 58.3154 64.2832)" fill="#FEBF35"/>
<path d="M108.771 74.967C108.771 87.6513 95.3412 109.731 83.4031 109.731C71.465 109.731 69.4191 87.6513 69.4191 74.967C69.4191 62.2827 75.2169 52 87.155 52C99.0931 52 108.771 62.2827 108.771 74.967Z" fill="#FEBF35"/>
<g filter="url(#filter25_f_457_2603)">
<ellipse cx="78.0276" cy="81.4795" rx="6.14874" ry="6.14157" fill="white"/>
</g>
<ellipse cx="23.9774" cy="19.6553" rx="23.9774" ry="19.6553" transform="matrix(-0.950322 0.311268 0.311924 0.950107 419.886 62.2832)" fill="#FEBF35"/>
<path d="M369.43 72.967C369.43 85.6513 382.86 107.731 394.798 107.731C406.736 107.731 408.782 85.6513 408.782 72.967C408.782 60.2827 402.984 50 391.046 50C379.108 50 369.43 60.2827 369.43 72.967Z" fill="#FEBF35"/>
<g filter="url(#filter26_f_457_2603)">
<ellipse cx="6.14874" cy="6.14157" rx="6.14874" ry="6.14157" transform="matrix(-1 0 0 1 406.323 73.3379)" fill="white"/>
</g>
<ellipse cx="23.9774" cy="19.6553" rx="23.9774" ry="19.6553" transform="matrix(0.950322 0.311268 -0.311924 0.950107 169.445 55.2832)" fill="#FEBF35"/>
<path d="M219.901 65.967C219.901 78.6513 206.471 100.731 194.533 100.731C182.595 100.731 180.549 78.6513 180.549 65.967C180.549 53.2827 186.347 43 198.285 43C210.223 43 219.901 53.2827 219.901 65.967Z" fill="#FEBF35"/>
<g filter="url(#filter27_f_457_2603)">
<ellipse cx="189.158" cy="72.4795" rx="6.14874" ry="6.14157" fill="white"/>
</g>
<ellipse cx="23.9774" cy="19.6553" rx="23.9774" ry="19.6553" transform="matrix(-0.950322 0.311268 0.311924 0.950107 308.756 53.2832)" fill="#FEBF35"/>
<path d="M258.3 63.967C258.3 76.6513 271.73 98.7308 283.668 98.7308C295.606 98.7308 297.652 76.6513 297.652 63.967C297.652 51.2827 291.854 41 279.916 41C267.978 41 258.3 51.2827 258.3 63.967Z" fill="#FEBF35"/>
<g filter="url(#filter28_f_457_2603)">
<ellipse cx="6.14874" cy="6.14157" rx="6.14874" ry="6.14157" transform="matrix(-1 0 0 1 295.192 64.3379)" fill="white"/>
</g>
<ellipse cx="23.9774" cy="19.6553" rx="23.9774" ry="19.6553" transform="matrix(0.950322 0.311268 -0.311924 0.950107 176.453 117.283)" fill="#FEBF35"/>
<path d="M226.909 127.967C226.909 140.651 213.479 162.731 201.541 162.731C189.603 162.731 187.557 140.651 187.557 127.967C187.557 115.283 193.355 105 205.293 105C217.231 105 226.909 115.283 226.909 127.967Z" fill="#FEBF35"/>
<g filter="url(#filter29_f_457_2603)">
<ellipse cx="196.164" cy="134.479" rx="6.14874" ry="6.14157" fill="white"/>
</g>
<ellipse cx="28.5979" cy="23.4429" rx="28.5979" ry="23.4429" transform="matrix(0.950322 0.311268 -0.311924 0.950107 120.749 16.6504)" fill="#FEBF35"/>
<path d="M180.927 29.3929C180.927 44.5216 164.91 70.8558 150.671 70.8558C136.433 70.8558 133.992 44.5216 133.992 29.3929C133.992 14.2642 140.907 2 155.146 2C169.385 2 180.927 14.2642 180.927 29.3929Z" fill="#FEBF35"/>
<g filter="url(#filter30_f_457_2603)">
<ellipse cx="150.184" cy="31.4795" rx="6.14874" ry="6.14157" fill="white"/>
</g>
<ellipse cx="28.5979" cy="23.4429" rx="28.5979" ry="23.4429" transform="matrix(-0.950322 0.311268 0.311924 0.950107 357.453 14.6504)" fill="#FEBF35"/>
<path d="M297.275 27.3929C297.275 42.5216 313.292 68.8558 327.531 68.8558C341.77 68.8558 344.21 42.5216 344.21 27.3929C344.21 12.2642 337.295 0 323.056 0C308.817 0 297.275 12.2642 297.275 27.3929Z" fill="#FEBF35"/>
<g filter="url(#filter31_f_457_2603)">
<ellipse cx="6.14874" cy="6.14157" rx="6.14874" ry="6.14157" transform="matrix(-1 0 0 1 334.167 23.3379)" fill="white"/>
</g>
<ellipse cx="23.9774" cy="19.6553" rx="23.9774" ry="19.6553" transform="matrix(0.950322 0.311268 -0.311924 0.950107 243.531 113.283)" fill="#FEBF35"/>
<path d="M293.987 123.967C293.987 136.651 280.557 158.731 268.619 158.731C256.681 158.731 254.635 136.651 254.635 123.967C254.635 111.283 260.433 101 272.371 101C284.309 101 293.987 111.283 293.987 123.967Z" fill="#FEBF35"/>
<g filter="url(#filter32_f_457_2603)">
<ellipse cx="263.242" cy="130.479" rx="6.14874" ry="6.14157" fill="white"/>
</g>
<ellipse cx="23.9774" cy="19.6553" rx="23.9774" ry="19.6553" transform="matrix(0.950322 0.311268 -0.311924 0.950107 232.519 31.2832)" fill="#FEBF35"/>
<path d="M282.974 41.967C282.974 54.6513 269.544 76.7308 257.606 76.7308C245.668 76.7308 243.622 54.6513 243.622 41.967C243.622 29.2827 249.42 19 261.358 19C273.296 19 282.974 29.2827 282.974 41.967Z" fill="#FEBF35"/>
<g filter="url(#filter33_f_457_2603)">
<ellipse cx="252.231" cy="48.4795" rx="6.14874" ry="6.14157" fill="white"/>
</g>
<ellipse cx="23.9774" cy="19.6553" rx="23.9774" ry="19.6553" transform="matrix(0.950322 0.311268 -0.311924 0.950107 293.59 102.283)" fill="#FEBF35"/>
<path d="M344.045 112.967C344.045 125.651 330.616 147.731 318.678 147.731C306.739 147.731 304.693 125.651 304.693 112.967C304.693 100.283 310.491 90 322.429 90C334.368 90 344.045 100.283 344.045 112.967Z" fill="#FEBF35"/>
<g filter="url(#filter34_f_457_2603)">
<ellipse cx="313.301" cy="119.479" rx="6.14874" ry="6.14157" fill="white"/>
</g>
<ellipse cx="23.9774" cy="19.6553" rx="23.9774" ry="19.6553" transform="matrix(0.950322 0.311268 -0.311924 0.950107 264.556 61.2832)" fill="#FEBF35"/>
<path d="M315.011 71.967C315.011 84.6513 301.581 106.731 289.643 106.731C277.705 106.731 275.659 84.6513 275.659 71.967C275.659 59.2827 281.457 49 293.395 49C305.333 49 315.011 59.2827 315.011 71.967Z" fill="#FEBF35"/>
<g filter="url(#filter35_f_457_2603)">
<ellipse cx="284.268" cy="78.4795" rx="6.14874" ry="6.14157" fill="white"/>
</g>
<defs>
<filter id="filter0_f_457_2603" x="215.256" y="24" width="18.0117" height="18" filterUnits="userSpaceOnUse" color-interpolation-filters="sRGB">
<feFlood flood-opacity="0" result="BackgroundImageFix"/>
<feBlend mode="normal" in="SourceGraphic" in2="BackgroundImageFix" result="shape"/>
<feGaussianBlur stdDeviation="2" result="effect1_foregroundBlur_457_2603"/>
</filter>
<filter id="filter1_f_457_2603" x="295.349" y="88" width="18.0117" height="18" filterUnits="userSpaceOnUse" color-interpolation-filters="sRGB">
<feFlood flood-opacity="0" result="BackgroundImageFix"/>
<feBlend mode="normal" in="SourceGraphic" in2="BackgroundImageFix" result="shape"/>
<feGaussianBlur stdDeviation="2" result="effect1_foregroundBlur_457_2603"/>
</filter>
<filter id="filter2_f_457_2603" x="280.331" y="132" width="18.0117" height="18" filterUnits="userSpaceOnUse" color-interpolation-filters="sRGB">
<feFlood flood-opacity="0" result="BackgroundImageFix"/>
<feBlend mode="normal" in="SourceGraphic" in2="BackgroundImageFix" result="shape"/>
<feGaussianBlur stdDeviation="2" result="effect1_foregroundBlur_457_2603"/>
</filter>
<filter id="filter3_f_457_2603" x="315.372" y="129" width="18.0117" height="18" filterUnits="userSpaceOnUse" color-interpolation-filters="sRGB">
<feFlood flood-opacity="0" result="BackgroundImageFix"/>
<feBlend mode="normal" in="SourceGraphic" in2="BackgroundImageFix" result="shape"/>
<feGaussianBlur stdDeviation="2" result="effect1_foregroundBlur_457_2603"/>
</filter>
<filter id="filter4_f_457_2603" x="197.04" y="78.5254" width="21.7334" height="21.7168" filterUnits="userSpaceOnUse" color-interpolation-filters="sRGB">
<feFlood flood-opacity="0" result="BackgroundImageFix"/>
<feBlend mode="normal" in="SourceGraphic" in2="BackgroundImageFix" result="shape"/>
<feGaussianBlur stdDeviation="2" result="effect1_foregroundBlur_457_2603"/>
</filter>
<filter id="filter5_f_457_2603" x="209.055" y="120.064" width="21.7334" height="21.7168" filterUnits="userSpaceOnUse" color-interpolation-filters="sRGB">
<feFlood flood-opacity="0" result="BackgroundImageFix"/>
<feBlend mode="normal" in="SourceGraphic" in2="BackgroundImageFix" result="shape"/>
<feGaussianBlur stdDeviation="2" result="effect1_foregroundBlur_457_2603"/>
</filter>
<filter id="filter6_f_457_2603" x="240.091" y="79.0645" width="21.7334" height="21.7168" filterUnits="userSpaceOnUse" color-interpolation-filters="sRGB">
<feFlood flood-opacity="0" result="BackgroundImageFix"/>
<feBlend mode="normal" in="SourceGraphic" in2="BackgroundImageFix" result="shape"/>
<feGaussianBlur stdDeviation="2" result="effect1_foregroundBlur_457_2603"/>
</filter>
<filter id="filter7_f_457_2603" x="163.001" y="43.0645" width="21.7334" height="21.7168" filterUnits="userSpaceOnUse" color-interpolation-filters="sRGB">
<feFlood flood-opacity="0" result="BackgroundImageFix"/>
<feBlend mode="normal" in="SourceGraphic" in2="BackgroundImageFix" result="shape"/>
<feGaussianBlur stdDeviation="2" result="effect1_foregroundBlur_457_2603"/>
</filter>
<filter id="filter8_f_457_2603" x="293.467" y="41.0645" width="21.7334" height="21.7168" filterUnits="userSpaceOnUse" color-interpolation-filters="sRGB">
<feFlood flood-opacity="0" result="BackgroundImageFix"/>
<feBlend mode="normal" in="SourceGraphic" in2="BackgroundImageFix" result="shape"/>
<feGaussianBlur stdDeviation="2" result="effect1_foregroundBlur_457_2603"/>
</filter>
<filter id="filter9_f_457_2603" x="154.744" y="119.744" width="22.0928" height="22.0762" filterUnits="userSpaceOnUse" color-interpolation-filters="sRGB">
<feFlood flood-opacity="0" result="BackgroundImageFix"/>
<feBlend mode="normal" in="SourceGraphic" in2="BackgroundImageFix" result="shape"/>
<feGaussianBlur stdDeviation="2" result="effect1_foregroundBlur_457_2603"/>
</filter>
<filter id="filter10_f_457_2603" x="301.364" y="117.744" width="22.0928" height="22.0762" filterUnits="userSpaceOnUse" color-interpolation-filters="sRGB">
<feFlood flood-opacity="0" result="BackgroundImageFix"/>
<feBlend mode="normal" in="SourceGraphic" in2="BackgroundImageFix" result="shape"/>
<feGaussianBlur stdDeviation="2" result="effect1_foregroundBlur_457_2603"/>
</filter>
<filter id="filter11_f_457_2603" x="133.72" y="83.7441" width="22.0928" height="22.0762" filterUnits="userSpaceOnUse" color-interpolation-filters="sRGB">
<feFlood flood-opacity="0" result="BackgroundImageFix"/>
<feBlend mode="normal" in="SourceGraphic" in2="BackgroundImageFix" result="shape"/>
<feGaussianBlur stdDeviation="2" result="effect1_foregroundBlur_457_2603"/>
</filter>
<filter id="filter12_f_457_2603" x="322.389" y="81.7441" width="22.0928" height="22.0762" filterUnits="userSpaceOnUse" color-interpolation-filters="sRGB">
<feFlood flood-opacity="0" result="BackgroundImageFix"/>
<feBlend mode="normal" in="SourceGraphic" in2="BackgroundImageFix" result="shape"/>
<feGaussianBlur stdDeviation="2" result="effect1_foregroundBlur_457_2603"/>
</filter>
<filter id="filter13_f_457_2603" x="24.8291" y="127.338" width="20.2979" height="20.2832" filterUnits="userSpaceOnUse" color-interpolation-filters="sRGB">
<feFlood flood-opacity="0" result="BackgroundImageFix"/>
<feBlend mode="normal" in="SourceGraphic" in2="BackgroundImageFix" result="shape"/>
<feGaussianBlur stdDeviation="2" result="effect1_foregroundBlur_457_2603"/>
</filter>
<filter id="filter14_f_457_2603" x="433.075" y="125.338" width="20.2979" height="20.2832" filterUnits="userSpaceOnUse" color-interpolation-filters="sRGB">
<feFlood flood-opacity="0" result="BackgroundImageFix"/>
<feBlend mode="normal" in="SourceGraphic" in2="BackgroundImageFix" result="shape"/>
<feGaussianBlur stdDeviation="2" result="effect1_foregroundBlur_457_2603"/>
</filter>
<filter id="filter15_f_457_2603" x="25.5938" y="82.7441" width="22.0928" height="22.0762" filterUnits="userSpaceOnUse" color-interpolation-filters="sRGB">
<feFlood flood-opacity="0" result="BackgroundImageFix"/>
<feBlend mode="normal" in="SourceGraphic" in2="BackgroundImageFix" result="shape"/>
<feGaussianBlur stdDeviation="2" result="effect1_foregroundBlur_457_2603"/>
</filter>
<filter id="filter16_f_457_2603" x="430.515" y="80.7441" width="22.0928" height="22.0762" filterUnits="userSpaceOnUse" color-interpolation-filters="sRGB">
<feFlood flood-opacity="0" result="BackgroundImageFix"/>
<feBlend mode="normal" in="SourceGraphic" in2="BackgroundImageFix" result="shape"/>
<feGaussianBlur stdDeviation="2" result="effect1_foregroundBlur_457_2603"/>
</filter>
<filter id="filter17_f_457_2603" x="57.6309" y="124.744" width="22.0928" height="22.0762" filterUnits="userSpaceOnUse" color-interpolation-filters="sRGB">
<feFlood flood-opacity="0" result="BackgroundImageFix"/>
<feBlend mode="normal" in="SourceGraphic" in2="BackgroundImageFix" result="shape"/>
<feGaussianBlur stdDeviation="2" result="effect1_foregroundBlur_457_2603"/>
</filter>
<filter id="filter18_f_457_2603" x="398.478" y="122.744" width="22.0928" height="22.0762" filterUnits="userSpaceOnUse" color-interpolation-filters="sRGB">
<feFlood flood-opacity="0" result="BackgroundImageFix"/>
<feBlend mode="normal" in="SourceGraphic" in2="BackgroundImageFix" result="shape"/>
<feGaussianBlur stdDeviation="2" result="effect1_foregroundBlur_457_2603"/>
</filter>
<filter id="filter19_f_457_2603" x="93.6729" y="95.7441" width="22.0928" height="22.0762" filterUnits="userSpaceOnUse" color-interpolation-filters="sRGB">
<feFlood flood-opacity="0" result="BackgroundImageFix"/>
<feBlend mode="normal" in="SourceGraphic" in2="BackgroundImageFix" result="shape"/>
<feGaussianBlur stdDeviation="2" result="effect1_foregroundBlur_457_2603"/>
</filter>
<filter id="filter20_f_457_2603" x="362.436" y="93.7441" width="22.0928" height="22.0762" filterUnits="userSpaceOnUse" color-interpolation-filters="sRGB">
<feFlood flood-opacity="0" result="BackgroundImageFix"/>
<feBlend mode="normal" in="SourceGraphic" in2="BackgroundImageFix" result="shape"/>
<feGaussianBlur stdDeviation="2" result="effect1_foregroundBlur_457_2603"/>
</filter>
<filter id="filter21_f_457_2603" x="105.688" y="46.7441" width="22.0928" height="22.0762" filterUnits="userSpaceOnUse" color-interpolation-filters="sRGB">
<feFlood flood-opacity="0" result="BackgroundImageFix"/>
<feBlend mode="normal" in="SourceGraphic" in2="BackgroundImageFix" result="shape"/>
<feGaussianBlur stdDeviation="2" result="effect1_foregroundBlur_457_2603"/>
</filter>
<filter id="filter22_f_457_2603" x="350.422" y="44.7441" width="22.0928" height="22.0762" filterUnits="userSpaceOnUse" color-interpolation-filters="sRGB">
<feFlood flood-opacity="0" result="BackgroundImageFix"/>
<feBlend mode="normal" in="SourceGraphic" in2="BackgroundImageFix" result="shape"/>
<feGaussianBlur stdDeviation="2" result="effect1_foregroundBlur_457_2603"/>
</filter>
<filter id="filter23_f_457_2603" x="110.929" y="129.338" width="20.2979" height="20.2832" filterUnits="userSpaceOnUse" color-interpolation-filters="sRGB">
<feFlood flood-opacity="0" result="BackgroundImageFix"/>
<feBlend mode="normal" in="SourceGraphic" in2="BackgroundImageFix" result="shape"/>
<feGaussianBlur stdDeviation="2" result="effect1_foregroundBlur_457_2603"/>
</filter>
<filter id="filter24_f_457_2603" x="346.975" y="127.338" width="20.2979" height="20.2832" filterUnits="userSpaceOnUse" color-interpolation-filters="sRGB">
<feFlood flood-opacity="0" result="BackgroundImageFix"/>
<feBlend mode="normal" in="SourceGraphic" in2="BackgroundImageFix" result="shape"/>
<feGaussianBlur stdDeviation="2" result="effect1_foregroundBlur_457_2603"/>
</filter>
<filter id="filter25_f_457_2603" x="67.8789" y="71.3379" width="20.2979" height="20.2832" filterUnits="userSpaceOnUse" color-interpolation-filters="sRGB">
<feFlood flood-opacity="0" result="BackgroundImageFix"/>
<feBlend mode="normal" in="SourceGraphic" in2="BackgroundImageFix" result="shape"/>
<feGaussianBlur stdDeviation="2" result="effect1_foregroundBlur_457_2603"/>
</filter>
<filter id="filter26_f_457_2603" x="390.025" y="69.3379" width="20.2979" height="20.2832" filterUnits="userSpaceOnUse" color-interpolation-filters="sRGB">
<feFlood flood-opacity="0" result="BackgroundImageFix"/>
<feBlend mode="normal" in="SourceGraphic" in2="BackgroundImageFix" result="shape"/>
<feGaussianBlur stdDeviation="2" result="effect1_foregroundBlur_457_2603"/>
</filter>
<filter id="filter27_f_457_2603" x="179.009" y="62.3379" width="20.2979" height="20.2832" filterUnits="userSpaceOnUse" color-interpolation-filters="sRGB">
<feFlood flood-opacity="0" result="BackgroundImageFix"/>
<feBlend mode="normal" in="SourceGraphic" in2="BackgroundImageFix" result="shape"/>
<feGaussianBlur stdDeviation="2" result="effect1_foregroundBlur_457_2603"/>
</filter>
<filter id="filter28_f_457_2603" x="278.895" y="60.3379" width="20.2979" height="20.2832" filterUnits="userSpaceOnUse" color-interpolation-filters="sRGB">
<feFlood flood-opacity="0" result="BackgroundImageFix"/>
<feBlend mode="normal" in="SourceGraphic" in2="BackgroundImageFix" result="shape"/>
<feGaussianBlur stdDeviation="2" result="effect1_foregroundBlur_457_2603"/>
</filter>
<filter id="filter29_f_457_2603" x="186.016" y="124.338" width="20.2979" height="20.2832" filterUnits="userSpaceOnUse" color-interpolation-filters="sRGB">
<feFlood flood-opacity="0" result="BackgroundImageFix"/>
<feBlend mode="normal" in="SourceGraphic" in2="BackgroundImageFix" result="shape"/>
<feGaussianBlur stdDeviation="2" result="effect1_foregroundBlur_457_2603"/>
</filter>
<filter id="filter30_f_457_2603" x="140.035" y="21.3379" width="20.2979" height="20.2832" filterUnits="userSpaceOnUse" color-interpolation-filters="sRGB">
<feFlood flood-opacity="0" result="BackgroundImageFix"/>
<feBlend mode="normal" in="SourceGraphic" in2="BackgroundImageFix" result="shape"/>
<feGaussianBlur stdDeviation="2" result="effect1_foregroundBlur_457_2603"/>
</filter>
<filter id="filter31_f_457_2603" x="317.869" y="19.3379" width="20.2979" height="20.2832" filterUnits="userSpaceOnUse" color-interpolation-filters="sRGB">
<feFlood flood-opacity="0" result="BackgroundImageFix"/>
<feBlend mode="normal" in="SourceGraphic" in2="BackgroundImageFix" result="shape"/>
<feGaussianBlur stdDeviation="2" result="effect1_foregroundBlur_457_2603"/>
</filter>
<filter id="filter32_f_457_2603" x="253.094" y="120.338" width="20.2979" height="20.2832" filterUnits="userSpaceOnUse" color-interpolation-filters="sRGB">
<feFlood flood-opacity="0" result="BackgroundImageFix"/>
<feBlend mode="normal" in="SourceGraphic" in2="BackgroundImageFix" result="shape"/>
<feGaussianBlur stdDeviation="2" result="effect1_foregroundBlur_457_2603"/>
</filter>
<filter id="filter33_f_457_2603" x="242.082" y="38.3379" width="20.2979" height="20.2832" filterUnits="userSpaceOnUse" color-interpolation-filters="sRGB">
<feFlood flood-opacity="0" result="BackgroundImageFix"/>
<feBlend mode="normal" in="SourceGraphic" in2="BackgroundImageFix" result="shape"/>
<feGaussianBlur stdDeviation="2" result="effect1_foregroundBlur_457_2603"/>
</filter>
<filter id="filter34_f_457_2603" x="303.152" y="109.338" width="20.2979" height="20.2832" filterUnits="userSpaceOnUse" color-interpolation-filters="sRGB">
<feFlood flood-opacity="0" result="BackgroundImageFix"/>
<feBlend mode="normal" in="SourceGraphic" in2="BackgroundImageFix" result="shape"/>
<feGaussianBlur stdDeviation="2" result="effect1_foregroundBlur_457_2603"/>
</filter>
<filter id="filter35_f_457_2603" x="274.119" y="68.3379" width="20.2979" height="20.2832" filterUnits="userSpaceOnUse" color-interpolation-filters="sRGB">
<feFlood flood-opacity="0" result="BackgroundImageFix"/>
<feBlend mode="normal" in="SourceGraphic" in2="BackgroundImageFix" result="shape"/>
<feGaussianBlur stdDeviation="2" result="effect1_foregroundBlur_457_2603"/>
</filter>
</defs>
</svg>
