<svg width="162" height="168" viewBox="0 0 162 168" fill="none" xmlns="http://www.w3.org/2000/svg">
<ellipse cx="62.2953" cy="78.4709" rx="53.2973" ry="64.6427" fill="#F2F2F2"/>
<path d="M54.6816 129.976C54.6816 147.922 42.4407 162.47 27.3408 162.47C12.2409 162.47 0 147.922 0 129.976C0 112.03 8.99824 65.3334 16.2661 56C31.366 56 54.6816 112.03 54.6816 129.976Z" fill="#F2F2F2"/>
<path d="M70.6016 129.976C70.6016 147.922 82.8425 162.47 97.9424 162.47C113.042 162.47 125.283 147.922 125.283 129.976C125.283 112.03 116.285 65.3334 109.017 56C93.9172 56 70.6016 112.03 70.6016 129.976Z" fill="#F2F2F2"/>
<ellipse cx="62.6412" cy="138.617" rx="34.9547" ry="29.3831" fill="#F2F2F2"/>
<ellipse cx="52.2589" cy="51.5076" rx="4.49912" ry="4.49388" fill="black"/>
<ellipse cx="73.0245" cy="51.5076" rx="4.49912" ry="4.49388" fill="black"/>
<path d="M68.5247 63.9511C68.5247 65.6693 65.0639 68.7906 62.6413 70.8647C59.1804 67.7536 56.7578 65.6693 56.7578 63.9511C56.7578 62.2328 59.3919 62.2227 62.6413 62.2227C65.8906 62.2227 68.5247 62.2328 68.5247 63.9511Z" fill="black"/>
<path d="M62.6416 70.1738V79.6427" stroke="black" stroke-linecap="round"/>
<path d="M54.6816 79.5098C54.6816 79.5098 57.0214 81.5839 58.8347 81.5839C60.648 81.5839 62.6416 79.5098 62.6416 79.5098" stroke="black"/>
<path d="M62.6416 79.5098C62.6416 79.5098 64.5709 81.5839 66.4486 81.5839C68.3262 81.5839 70.6016 79.5098 70.6016 79.5098" stroke="black"/>
<path d="M87.7707 11.5404C90.4281 9.51525 94.2504 11.4425 94.1972 14.7808L93.9709 28.9691C93.9238 31.9206 90.8024 33.8071 88.1657 32.4776L77.0974 26.8968C74.4607 25.5673 74.1266 21.9385 76.4761 20.148L87.7707 11.5404Z" fill="#F2F2F2"/>
<path d="M36.1463 11.5404C33.4889 9.51525 29.6666 11.4425 29.7198 14.7808L29.9461 28.9691C29.9932 31.9206 33.1146 33.8071 35.7513 32.4776L46.8196 26.8968C49.4563 25.5673 49.7904 21.9385 47.4409 20.148L36.1463 11.5404Z" fill="#F2F2F2"/>
<path d="M130.242 90.0387C128.699 93.371 136.372 106.196 134.734 109.253C132.969 112.548 120.787 104.778 118.97 107.683C116.992 110.846 125.377 124.643 123.41 127.254C115.526 137.722 108.041 143.387 103.425 141.255C95.6186 137.648 99.2416 113.233 111.518 86.7208C123.793 60.2089 140.074 41.6404 147.88 45.2467C151.193 46.7772 140.482 54.9069 139.89 62.503C139.65 65.5857 151.072 66.1988 150.238 69.9492C149.504 73.2449 139.141 72.0353 137.97 75.7081C136.96 78.8753 145.197 86.8848 143.875 90.2426C142.644 93.3686 131.734 86.8172 130.242 90.0387Z" fill="#F2F2F2"/>
</svg>
