<svg width="403" height="289" viewBox="0 0 403 289" fill="none" xmlns="http://www.w3.org/2000/svg">
<rect x="10" y="87" width="346.226" height="192" rx="20" fill="#B5C18E" stroke="black" stroke-width="20"/>
<rect x="49.0244" y="177" width="267.177" height="106" rx="21" fill="#B5C18E" stroke="black" stroke-width="12"/>
<line x1="73.0332" y1="180" x2="73.0332" y2="277" stroke="black" stroke-width="10"/>
<line x1="133.075" y1="180" x2="133.075" y2="277" stroke="black" stroke-width="10"/>
<line x1="193.116" y1="180" x2="193.116" y2="277" stroke="black" stroke-width="10"/>
<line x1="253.158" y1="180" x2="253.158" y2="277" stroke="black" stroke-width="10"/>
<line x1="93.0469" y1="180" x2="93.0469" y2="277" stroke="black" stroke-width="10"/>
<line x1="153.089" y1="180" x2="153.089" y2="277" stroke="black" stroke-width="10"/>
<line x1="213.131" y1="180" x2="213.131" y2="277" stroke="black" stroke-width="10"/>
<line x1="273.172" y1="180" x2="273.172" y2="277" stroke="black" stroke-width="10"/>
<line x1="113.062" y1="180" x2="113.062" y2="277" stroke="black" stroke-width="10"/>
<line x1="173.103" y1="180" x2="173.103" y2="277" stroke="black" stroke-width="10"/>
<line x1="233.145" y1="180" x2="233.145" y2="277" stroke="black" stroke-width="10"/>
<line x1="293.187" y1="180" x2="293.187" y2="277" stroke="black" stroke-width="10"/>
<path d="M397.265 174.5C397.265 191.815 386.037 204 374.246 204C362.455 204 351.227 191.815 351.227 174.5C351.227 157.185 362.455 145 374.246 145C386.037 145 397.265 157.185 397.265 174.5Z" fill="#B5C18E" stroke="black" stroke-width="10"/>
<path d="M235.149 144L114.065 23" stroke="black" stroke-width="15" stroke-linecap="round"/>
<path d="M247.157 83L172.105 8" stroke="black" stroke-width="15" stroke-linecap="round"/>
<path d="M114.065 23L172.109 7.99979" stroke="black" stroke-width="15" stroke-linecap="round"/>
</svg>
