<svg width="150" height="398" viewBox="0 0 150 398" fill="none" xmlns="http://www.w3.org/2000/svg">
<rect x="0.5" y="167.857" width="148.819" height="228.691" rx="33.5" fill="white" stroke="#C7C4C4"/>
<path d="M135.003 94.3821C135.003 120.37 128.65 143.873 118.405 160.862C108.154 177.861 94.0617 188.264 78.5885 188.264C70.876 188.264 61.8199 184.537 52.9617 178.353C44.1142 172.176 35.5168 163.584 28.7279 153.94C15.1164 134.605 8.91953 111.288 22.0658 94.6926C29.7392 85.0058 42.3782 82.101 53.983 79.8074C54.5861 79.6882 55.1865 79.5706 55.7833 79.4537C60.8943 78.4528 65.7399 77.5038 69.7027 76.0449C74.1317 74.4143 77.5797 72.1043 79.0555 68.2509C84.1457 54.9601 84.1355 37.8461 82.8721 24.1059C82.2395 17.2262 81.2907 11.1732 80.5 6.83989C80.1047 4.67297 79.7487 2.93542 79.4914 1.73877C79.4533 1.56127 79.4173 1.39567 79.3836 1.24233C79.747 1.52712 80.1953 1.88264 80.7199 2.30645C82.2703 3.55901 84.4871 5.4078 87.148 7.78957C92.4705 12.5537 99.5667 19.4472 106.662 27.9639C120.864 45.0117 135.003 68.4941 135.003 94.3821Z" fill="url(#paint0_linear_457_2220)" stroke="#C7C4C4"/>
<defs>
<linearGradient id="paint0_linear_457_2220" x1="74.902" y1="0" x2="74.902" y2="188.764" gradientUnits="userSpaceOnUse">
<stop stop-color="#F0A04B"/>
<stop offset="0.46" stop-color="#944707"/>
<stop offset="1" stop-color="#9B3922"/>
</linearGradient>
</defs>
</svg>
