<svg width="123" height="154" viewBox="0 0 123 154" fill="none" xmlns="http://www.w3.org/2000/svg">
<path d="M99.2055 77.0617C99.2055 77.9549 99.805 83.7105 99.7746 84.594C98.6823 116.317 77.573 136.741 52.4508 136.741C28.0363 136.741 6.99647 119.344 4.884 88.8816C4.76222 87.1255 5.69612 78.8582 5.69612 77.0617C5.69612 44.102 26.6289 17.3828 52.4508 17.3828C78.2727 17.3828 99.2055 44.102 99.2055 77.0617Z" fill="#F2F2F2"/>
<path d="M47.5668 115.07C47.5668 131.39 37.0744 144.62 24.1315 144.62C11.1885 144.62 0 131.39 0 115.07C8.12116 55.5079 11.1885 85.5203 24.1315 85.5203C37.0744 85.5203 47.5668 98.7502 47.5668 115.07Z" fill="#F2F2F2"/>
<path d="M58.4723 114.984C58.4723 131.304 68.9646 144.534 81.9076 144.534C94.8506 144.534 106.039 131.304 106.039 114.984C97.9179 55.4219 94.8506 85.4343 81.9076 85.4343C68.9646 85.4343 58.4723 98.6642 58.4723 114.984Z" fill="#F2F2F2"/>
<ellipse cx="52.4393" cy="123.645" rx="23.4354" ry="29.5498" fill="#F2F2F2"/>
<path d="M74.1735 10.6642C76.3778 8.16569 80.4911 9.29621 81.1053 12.5694L84.6206 31.3014C85.1659 34.207 82.4775 36.6808 79.6262 35.8971L63.4962 31.4639C60.6449 30.6803 59.6021 27.181 61.5588 24.963L74.1735 10.6642Z" fill="#F2F2F2"/>
<path d="M32.306 10.6642C30.1017 8.16569 25.9884 9.29621 25.3741 12.5694L21.8589 31.3014C21.3136 34.207 24.002 36.6808 26.8533 35.8971L42.9832 31.4639C45.8346 30.6803 46.8774 27.181 44.9207 24.963L32.306 10.6642Z" fill="#F2F2F2"/>
<path d="M102.58 83.7108C100.816 89.452 102.627 96.8639 100.887 101.859C95.0643 118.583 83.2116 127.229 81.3721 126.666C79.5327 126.102 85.6843 114.859 90.2564 97.7517C91.6221 92.6419 91.9433 86.732 93.7074 80.9908C96.4942 71.921 109.097 66.5432 111.246 59.4573C115.012 47.0406 105.769 46.869 110.228 43.0233C113.271 39.8348 119.837 48.5198 117.679 61.4293C116.448 68.7964 105.367 74.641 102.58 83.7108Z" fill="#F2F2F2"/>
<ellipse cx="43.6223" cy="48.2062" rx="5.10473" ry="5.09878" fill="black"/>
<ellipse cx="64.7375" cy="48.2062" rx="5.10473" ry="5.09878" fill="black"/>
<path d="M59.1684 60.6184C59.1684 63.4344 56.8481 64.7903 54.0637 66.5285C51.8594 65.1379 48.959 63.4344 48.959 60.6184C48.959 57.8025 51.2444 59.228 54.0637 59.228C56.883 59.228 59.1684 57.8025 59.1684 60.6184Z" fill="black"/>
<line y1="-1" x2="18.1212" y2="-1" transform="matrix(0.97314 -0.230212 0.230721 0.97302 62.1846 60.0254)" stroke="black" stroke-width="2"/>
<line y1="-1" x2="18.1212" y2="-1" transform="matrix(-0.97314 -0.230212 -0.230721 0.97302 45.502 60.0254)" stroke="black" stroke-width="2"/>
<line y1="-1" x2="18.1224" y2="-1" transform="matrix(0.999978 -0.00668398 0.00669958 0.999978 62.1846 62.2324)" stroke="black" stroke-width="2"/>
<line y1="-1" x2="18.1224" y2="-1" transform="matrix(-0.999978 -0.00668398 -0.00669958 0.999978 45.502 62.2324)" stroke="black" stroke-width="2"/>
<line y1="-1" x2="18.1218" y2="-1" transform="matrix(0.985495 0.169703 -0.170088 0.985429 62.1846 64.4277)" stroke="black" stroke-width="2"/>
<line y1="-1" x2="18.1218" y2="-1" transform="matrix(-0.985495 0.169703 0.170088 0.985429 45.502 64.4277)" stroke="black" stroke-width="2"/>
</svg>
