<svg width="884" height="749" viewBox="0 0 884 749" fill="none" xmlns="http://www.w3.org/2000/svg">
<ellipse cx="363.597" cy="452.968" rx="201.484" ry="295.82" fill="#F0A04B"/>
<ellipse cx="525.712" cy="452.968" rx="201.484" ry="295.82" fill="#F0A04B"/>
<ellipse cx="681.649" cy="452.968" rx="201.484" ry="268.087" fill="#F0A04B"/>
<ellipse cx="201.484" cy="452.968" rx="201.484" ry="268.087" fill="#F0A04B"/>
<ellipse cx="27.787" cy="125.587" rx="27.787" ry="125.587" transform="matrix(0.965911 0.258875 -0.259882 0.96564 468.244 0)" fill="#B5C18E"/>
<path d="M288.716 314.312L354.234 427.556H223.199L288.716 314.312Z" fill="#0C0C0C"/>
<path d="M597.505 314.312L663.022 427.556H531.987L597.505 314.312Z" fill="#0C0C0C"/>
<path d="M503.693 486.863L446.198 586.24H609.453L503.693 486.863Z" fill="#0C0C0C"/>
<path d="M477.076 685.619L419.582 586.242H534.571L477.076 685.619Z" fill="#0C0C0C"/>
<path d="M279.452 685.619L221.958 586.242H336.947L279.452 685.619Z" fill="#0C0C0C"/>
<path d="M578.977 685.619L521.482 586.242H636.472L578.977 685.619Z" fill="#0C0C0C"/>
<path d="M421.495 486.863L364 586.24H478.99L421.495 486.863Z" fill="#0C0C0C"/>
<path d="M690.14 497.649L548.292 553.967L603.68 640.167L690.14 497.649Z" fill="#0C0C0C"/>
<path d="M159.621 484.004L305.675 546.703L251.689 635.031L159.621 484.004Z" fill="#0C0C0C"/>
<path d="M331.947 486.863L274.452 586.24H389.441L331.947 486.863Z" fill="#0C0C0C"/>
<path d="M369.001 685.619L264.785 586.242H426.496L369.001 685.619Z" fill="#0C0C0C"/>
</svg>
